/* XPM */
static char *_0292_48f38a6f4a79e5478f7f1e5108f17c5b38b17c28be4d411788cd33955be23a76[] = {
/* columns rows colors chars-per-pixel */
"64 64 123 2 ",
"   c #010101",
".  c #0D0501",
"X  c #000008",
"o  c #07080D",
"O  c #0B0B0B",
"+  c #120900",
"@  c #130D09",
"#  c #1F1200",
"$  c #050A15",
"%  c #111112",
"&  c #1C1715",
"*  c #181816",
"=  c #15161A",
"-  c gray10",
";  c #231A0A",
":  c #2C230E",
">  c #1D1E20",
",  c #272727",
"<  c #22262C",
"1  c #2C2C2C",
"2  c #2B2D31",
"3  c #323232",
"4  c #3B3C3D",
"5  c #45380D",
"6  c #423919",
"7  c #413824",
"8  c #4F411F",
"9  c #5C4D1F",
"0  c #655422",
"q  c #3D3D42",
"w  c #444444",
"e  c #494949",
"r  c #535354",
"t  c #5C5C5C",
"y  c #5E6065",
"u  c #646464",
"i  c #676768",
"p  c #6C6C6C",
"a  c #747474",
"s  c #73767A",
"d  c #7D7D7C",
"f  c #9A7732",
"g  c #958543",
"h  c #958956",
"j  c #A48943",
"k  c #BEA852",
"l  c #CCB04C",
"z  c #C9B751",
"x  c #D0B459",
"c  c #D1C15F",
"v  c #DFC75E",
"b  c #FFC145",
"n  c #FFC44C",
"m  c #FFC654",
"M  c #FFC759",
"N  c #FFC95D",
"B  c #DBCB7A",
"V  c #FFCB64",
"C  c #FFCD6A",
"Z  c #EBD369",
"A  c #FFD361",
"S  c #FFDC60",
"D  c #FFD46A",
"F  c #F5D86A",
"G  c #FFDC6C",
"H  c #FFCF71",
"J  c #FFD173",
"K  c #FFD47D",
"L  c #F8E067",
"P  c #FFE26A",
"I  c #FFE876",
"U  c gray51",
"Y  c #8D8D8D",
"T  c #8E8F90",
"R  c #969696",
"E  c #9D9D9D",
"W  c #BDB584",
"Q  c #9C9DA0",
"!  c #9EA2A9",
"~  c #A2A2A2",
"^  c #A3A6AD",
"/  c #AAAAAA",
"(  c #ABACB1",
")  c #B2B2B3",
"_  c #BCBCBC",
"`  c #FFD685",
"'  c #FFD98B",
"]  c #FFDB92",
"[  c #FFDD99",
"{  c #FFED8C",
"}  c #FFF68F",
"|  c #FFED91",
" . c #FFE79E",
".. c #FFE1A4",
"X. c #FFE4AD",
"o. c #FFE6B3",
"O. c #FFE7B8",
"+. c #FFE9BC",
"@. c #C5C5C4",
"#. c #C9C9CA",
"$. c #D6D6D6",
"%. c #D9D9D9",
"&. c #FFEBC3",
"*. c #FFEECA",
"=. c #FFF1C3",
"-. c #FFF8C7",
";. c #FFF5CD",
":. c #F3EED4",
">. c #F7F4D0",
",. c #FFF5D2",
"<. c #FFF9D7",
"1. c #FFF3D8",
"2. c #FFF9DF",
"3. c #E1E2E3",
"4. c #ECECEC",
"5. c #FFF6E2",
"6. c #FFF9E2",
"7. c #FFFDEE",
"8. c #F4F4F4",
"9. c #FFFDF5",
"0. c #F7F8F8",
"q. c #FFFFFF",
"w. c None",
/* pixels */
"w.w.w.w.w.w.w.w.w.w.w.w.w.w.w.w.w.w.w.w.w.w.w.w.w.w.w.w.w.w.w.w.w.w.w.w.w.w.w.w.w.w.w.w.w.w.w.w.w.w.w.w.w.w.w.w.w.w.w.w.w.w.w.w.",
"w.w.w.w.w.w.w.w.w.w.w.w.w.w.w.w.w.w.w.w.w.w.w.w.w.w.w.w.w.w.w.w.w.w.w.w.w.w.w.w.w.w.w.w.w.w.w.w.w.w.w.w.w.w.w.w.w.w.w.w.w.w.w.w.",
"w.w.w.w.w.w.w.w.w.w.w.w.w.w.w.w.w.w.w.w.w.w.w.w.w.w.w.w.w.w.w.w.w.w.w.w.w.w.w.w.w.w.w.w.w.w.w.w.w.w.w.w.w.w.w.w.w.w.w.w.w.w.w.w.",
"w.w.w.w.w.w.w.w.w.w.w.w.w.w.w.w.w.w.w.w.w.w.w.w.w.w.w.w.w.w.w.w.w.w.w.w.w.w.w.w.w.w.w.w.w.w.w.w.w.w.w.w.w.w.w.w.w.w.w.w.w.w.w.w.",
"w.w.w.w.w.w.w.w.w.w.w.w.w.w.w.w.w.w.w.w.w.w.w.w.w.w.w.w.w.w.w.w.w.w.w.w.w.w.w.w.w.w.w.w.w.w.w.w.w.w.w.w.w.w.w.w.w.w.w.w.w.w.w.w.",
"w.w.w.w.w.w.w.w.w.w.w.w.w.w.w.w.w.w.w.w.w.w.w.w.w.w.w.w.w.w.w.w.w.w.w.w.w.w.w.w.w.w.w.w.w.w.w.w.w.w.w.w.w.w.w.w.w.w.w.w.w.w.w.w.",
"w.w.w.w.w.w.w.w.w.w.w.w.w.w.w.w.w.w.w.w.w.w.w.w.w.w.w.w.w.w.w.w.w.w.w.w.w.w.w.w.w.w.w.w.w.w.w.w.w.w.w.w.w.w.w.w.w.w.w.w.w.w.w.w.",
"w.w.w.w.w.w.w.w.w.w.w.w.w.w.w.w.w.w.w.w.w.w.w.w.w.w.w.w.w.w.w.w.w.w.w.w.w.w.w.w.w.w.w.w.w.w.w.w.w.w.w.w.w.w.w.w.w.w.w.w.w.w.w.w.",
"w.w.w.w.w.w.w.w.w.w.w.w.w.w.w.w.w.w.w.w.w.w.w.w.w.w.w.w.w.w.w.w.w.w.w.w.w.w.w.w.w.w.w.w.w.w.w.w.w.w.w.w.w.w.w.w.w.w.w.w.w.w.w.w.",
"w.w.w.w.w.w.w.w.w.w.w.w.w.w.w.w.w.w.w.w.w.w.w.w.w.w.w.w.w.w.w.w.w.w.w.w.w.w.w.w.w.w.w.w.w.w.w.w.w.w.w.w.w.w.w.w.w.w.w.w.w.w.w.w.",
"w.w.w.w.w.w.w.w.w.w.w.w.w.w.w.w.w.w.w.w.w.w.w.w.w.w.w.w.w.w.w.w.w.w.w.w.w.w.w.w.w.w.w.w.w.w.w.w.w.w.w.w.w.w.w.w.w.w.w.w.w.w.w.w.",
"w.w.w.w.w.w.w.w.w.w.w.w.w.w.w.w.w.w.w.w.w.w.w.w.w.w.w.w.w.w.w.w.w.w.w.w.w.w.w.w.w.w.w.w.w.w.w.w.w.w.w.w.w.w.w.w.w.w.w.w.w.w.w.w.",
"w.w.w.w.w.w.w.w.w.w.w.w.w.w.w.w.w.w.w.w.w.w.w.w.w.w.w.w.w.w.w.w.w.w.w.w.w.w.w.w.w.w.w.w.w.w.w.w.w.w.w.w.w.w.w.w.w.w.w.w.w.w.w.w.",
"w.w.w.w.w.w.w.w.w.w.w.w.w.w.w.w.w.w.w.w.w.w.w.w.w.w.w.w.w.w.w.w.w.w.w.w.w.w.w.w.w.w.w.w.w.w.w.w.w.w.w.w.w.w.w.w.w.w.w.w.w.w.w.w.",
"w.w.w.w.w.w.w.w.w.w.w.w.w.w.w.w.w.w.w.w.w.w.w.w.w.w.w.w.w.w.w.w.w.w.w.w.w.w.w.w.w.w.w.w.w.w.w.w.w.w.w.w.w.w.w.w.w.w.w.w.w.w.w.w.",
"w.w.w.w.w.w.w.w.w.w.w.w.w.w.w.w.w.w.w.w.w.w.w.w.w.w.w.w.w.w.w.w.w.w.w.w.w.w.w.w.w.w.w.w.w.w.w.w.w.w.w.w.w.w.w.w.w.w.w.w.w.w.w.w.",
"w.w.w.w.w.w.w.w.w.w.w.w.w.w.w.w.w.w.w.w.w.w.w.w.w.w.w.w.w.w.w.w.w.w.w.w.w.w.w.w.w.w.w.w.w.w.w.w.w.w.w.w.w.w.w.w.w.w.w.w.w.w.w.w.",
"w.w.w.w.w.w.w.w.w.w.w.w.w.w.w.w.w.w.w.w.w.w.w.w.w.w.w.w.w.w.w.w.w.w.w.w.w.w.w.w.w.w.w.w.w.w.w.w.w.w.w.w.w.w.w.w.w.w.w.w.w.w.w.w.",
"w.w.w.w.w.w.w.w.w.w.w.w.w.w.w.w.w.w.w.w.w.w.w.w.w.w.w.w.w.w.w.w.w.w.w.w.w.w.w.w.w.w.w.w.w.w.w.w.w.w.w.w.w.w.w.w.w.w.w.w.w.w.w.w.",
"w.w.w.w.w.w.w.w.w.w.w.w.w.w.w.w.w.w.w.w.w.w.w.w.w.w.w.w.w.w.w.w.w.w.w.w.w.w.w.w.w.w.w.w.w.w.w.w.w.w.w.w.w.w.w.w.w.w.w.w.w.w.w.w.",
"w.w.w.w.w.w.w.w.w.w.w.w.w.w.w.w.w.w.w.w.w.w.w.w.w.w.w.w.w.w.w.w.w.w.w.w.w.w.w.w.w.w.w.w.w.w.w.w.w.w.w.w.w.w.w.w.w.w.w.w.w.w.w.w.",
"w.w.w.w.w.w.w.w.w.w.w.w.w.w.w.w.w.w.w.w.w.w.w.w.w.w.w.w.w.w.w.w.w.w.w.w.w.w.w.w.w.w.w.w.w.w.w.w.w.w.w.w.w.w.w.w.w.w.w.w.w.w.w.w.",
"w.w.w.w.w.w.w.w.w.w.w.w.w.w.w.w.w.w.w.w.w.w.w.w.w.w.w.w.w.w.w.w.w.w.w.w.w.w.w.w.w.w.w.w.w.w.w.w.w.w.w.w.w.w.w.w.w.w.w.w.w.w.w.w.",
"w.w.w.w.w.w.w.w.w.w.w.w.w.w.w.w.w.w.w.w.w.w.w.w.w.w.w.w.w.  w.w.w.w.w.w.w.w.w.w.w.w.w.w.w.w.w.w.w.w.w.w.w.w.w.w.w.w.w.w.w.w.w.w.",
"w.w.w.w.w.w.w.w.w.w.w.w.w.w.w.w.w.w.w.w.w.w.w.            4 -   w.w.w.w.w.w.w.w.w.w.w.w.w.w.w.w.w.w.w.w.w.w.w.w.w.w.w.w.w.w.w.w.",
"w.w.w.w.w.w.w.w.w.w.w.w.w.w.w.w.w.w.w.w.w.w.  4 e w E a ~ 8.3.3   O -   w.w.w.w.w.w.w.w.w.w.w.w.w.w.w.w.w.w.w.w.w.w.w.w.w.w.w.w.",
"w.w.w.w.w.w.w.w.w.w.w.w.w.w.w.w.w.w.w.w.w.  u q.q.q.q.q.q.q.q._ w / 4.U         w.w.w.w.w.w.w.w.w.w.w.w.w.w.w.w.w.w.w.w.w.w.w.w.",
"w.w.w.w.w.w.w.w.w.w.w.w.w.w.w.w.w.w.w.w.w.  / q.q.q.q.q.q.q.q.q.8.q.q.q.t t @.d   w.w.w.w.w.w.w.w.w.w.w.w.w.w.w.w.w.w.w.w.w.w.w.",
"w.w.w.w.w.w.w.w.w.w.w.w.w.w.w.w.w.w.w.w.  * ) q.q.q.q.q.q.q.q.q.q.q.q.q.q.q.q.q.t   w.w.w.w.w.w.w.w.w.w.w.w.w.w.w.w.w.w.w.w.w.w.",
"w.w.w.w.w.w.w.w.w.w.w.w.w.w.w.w.w.w.w.  d $.0.q.q.q.q.q.q.q.q.q.q.q.q.q.q.q.q.q.U   w.w.w.w.w.w.w.w.w.w.w.w.w.w.w.w.w.w.w.w.w.w.",
"w.w.w.w.w.w.w.w.w.w.w.w.w.w.w.w.w.w.  3 q.q.q.q.q.q.q.q.q.q.q.q.q.q.q.q.q.q.q.q.4.4   w.w.w.w.w.w.w.w.w.w.w.w.w.w.w.w.w.w.w.w.w.",
"w.w.w.w.w.w.w.w.w.w.w.w.w.w.w.w.w.w.  d q.q.q.q.q.q.q.q.q.q.q.q.q.q.q.q.q.q.q.q.q.U   w.w.w.w.w.w.w.w.w.w.w.w.w.w.w.w.w.w.w.w.w.",
"w.w.w.w.w.w.w.w.w.w.w.w.w.w.w.w.w.w.O %.q.q.q.q.q.q.q.q.q.q.q.q.q.q.q.q.q.q.q.q.8.w   w.w.w.w.w.w.w.w.w.w.w.w.w.w.w.w.w.w.w.w.w.",
"w.w.w.w.w.w.w.w.w.w.w.w.w.w.w.w.w.  1 0.q.q.q.q.q.q.q.q.q.q.q.q.q.q.q.q.q.q.q.q.0.e   w.w.w.w.w.w.w.w.w.w.w.w.w.w.w.w.w.w.w.w.w.",
"w.w.w.w.w.w.w.w.w.w.w.w.w.w.w.w.w.  % 4.q.q.q.q.q.q.q.q.q.q.q.q.q.q.q.q.q.q.q.q.q.U   w.w.w.w.w.w.w.w.w.w.w.w.w.w.w.w.w.w.w.w.w.",
"w.w.w.w.w.w.w.w.w.w.w.w.w.w.w.w.w.w.  p q.q.q.q.q.q.q.q.q.q.q.q.q.q.q.q.q.q.q.q.q.a       w.w.w.w.w.w.w.w.w.w.w.w.w.w.w.w.w.w.w.",
"w.w.w.w.w.w.w.w.w.w.w.w.w.w.w.w.w.w.    _ q.q.q.q.q.q.q.q.q.q.q.q.q.q.q.q.q.q.q.q.d O R p O w.w.w.w.w.w.w.w.w.w.w.w.w.w.w.w.w.w.",
"w.w.w.w.w.w.w.w.w.w.w.w.w.w.w.w.w.w.w.O _ q.q.q.q.q.q.q.q.q.q.q.q.q.q.q.q.q.q.q.4.3 1 8.q.t   w.w.w.w.w.w.w.w.w.w.w.w.w.w.w.w.w.",
"w.w.w.w.w.w.w.w.w.w.w.w.w.w.w.w.w.w.w.O #.q.q.q.q.q.q.q.q.q.q.q.q.q.q.q.q.q.4.e %     4 8.Y   w.w.w.w.w.w.w.w.w.w.w.w.w.w.w.w.w.",
"w.w.w.w.w.w.w.w.w.w.w.w.w.w.w.w.w.w.w.  R q.q.q.q.q.q.q.q.q.q.q.q.q.%.8.q.q.E O e   w.  $.Y   w.w.w.w.w.w.w.w.w.w.w.w.w.w.w.w.w.",
"w.w.w.w.w.w.w.w.w.w.w.w.w.w.w.w.w.w.w.  1 3.q.q.q.q.q.q./ t 0.q.q./ % 2 ( Q o d #.  w.  %.Y   w.w.w.w.w.w.w.w.w.w.w.w.w.w.w.w.w.",
"w.w.w.w.w.w.w.w.w.w.w.w.w.w.w.w.w.w.w.1 - u q.q.q.q.q.q.t   r #.( = 6 9 . + 0 :./   w.o %.Y   w.w.w.w.w.w.w.w.w.w.w.w.w.w.w.w.w.",
"w.w.w.w.w.w.w.w.w.w.w.w.w.w.w.w.w.w.w.w 1 U q.q.q.q.q.q.T   ; & @ 8 F I B v S <.^   w.  %.Y   w.w.w.w.w.w.w.w.w.w.w.w.w.w.w.w.w.",
"w.w.w.w.w.w.w.w.w.w.w.w.w.w.w.w.w.w.w.e 1 i q.q.q.q.q.8.q 5 L k x P A +.7. .n ,.^   w.O %.Y   w.w.w.w.w.w.w.w.w.w.w.w.w.w.w.w.w.",
"w.w.w.w.w.w.w.w.w.w.w.w.w.w.w.w.w.w.w.r ~ X u @.q.q.q./   W { G G C N o.5.] n ,.^   w.  %.R   w.w.w.w.w.w.w.w.w.w.w.w.w.w.w.w.w.",
"w.w.w.w.w.w.w.w.w.w.w.w.w.w.w.w.w.w.w.q q.h # > 0.q.q.E * 3.2.V V C V V H N m ,.^   w.O %.Y   w.w.w.w.w.w.w.w.w.w.w.w.w.w.w.w.w.",
"w.w.w.w.w.w.w.w.w.w.w.w.w.w.w.w.w.w.w.4 q.} z   s 8.3.< 7 >.o.N V V C V N V m ,.^   w.  %.Y   w.w.w.w.w.w.w.w.w.w.w.w.w.w.w.w.w.",
"w.w.w.w.w.w.w.w.w.w.w.w.w.w.w.w.w.w.w.4 q.K P g . $ X : x G N V M N V V C H m ,.^   w.  %.Y   w.w.w.w.w.w.w.w.w.w.w.w.w.w.w.w.w.",
"w.w.w.w.w.w.w.w.w.w.w.w.w.w.w.w.w.w.w.4 q.K M P l f j Z G V V V ..' N V K ' m ,.^   w.  $.Y   w.w.w.w.w.w.w.w.w.w.w.w.w.w.w.w.w.",
"w.w.w.w.w.w.w.w.w.w.w.w.w.w.w.w.w.w.w.4 q.K m K -.| G D C C N C 2.X.m C V N m ,.^     , 4.Y   w.w.w.w.w.w.w.w.w.w.w.w.w.w.w.w.w.",
"w.w.w.w.w.w.w.w.w.w.w.w.w.w.w.w.w.w.w.4 q.` n o.q.+.M N H [ V V C V V V V M m ,.! % R %.q.p   w.w.w.w.w.w.w.w.w.w.w.w.w.w.w.w.w.",
"w.w.w.w.w.w.w.w.w.w.w.w.w.w.w.w.w.w.w.4 q.K m K O.` N C V m V V N V V V C K N ,.! * _ #.Y O w.w.w.w.w.w.w.w.w.w.w.w.w.w.w.w.w.w.",
"w.w.w.w.w.w.w.w.w.w.w.w.w.w.w.w.w.w.w.4 q.K M V m N C V J ] V V C N V N K 9.` &.^         w.w.w.w.w.w.w.w.w.w.w.w.w.w.w.w.w.w.w.",
"w.w.w.w.w.w.w.w.w.w.w.w.w.w.w.w.w.w.w.4 q.K N V N C V M ..7.H N V ` ` N C ' N ;.^   w.w.w.w.w.w.w.w.w.w.w.w.w.w.w.w.w.w.w.w.w.w.",
"w.w.w.w.w.w.w.w.w.w.w.w.w.w.w.w.w.w.w.4 q.K m J K V V V C K V V N J J M V m m <.^   w.w.w.w.w.w.w.w.w.w.w.w.w.w.w.w.w.w.w.w.w.w.",
"w.w.w.w.w.w.w.w.w.w.w.w.w.w.w.w.w.w.w.4 q.K n O.2.V V V V N N K K M V ' C V m ,.^   w.w.w.w.w.w.w.w.w.w.w.w.w.w.w.w.w.w.w.w.w.w.",
"w.w.w.w.w.w.w.w.w.w.w.w.w.w.w.w.w.w.w.4 q.K m K ' V V V C V N K K N C K C V M ,.^   w.w.w.w.w.w.w.w.w.w.w.w.w.w.w.w.w.w.w.w.w.w.",
"w.w.w.w.w.w.w.w.w.w.w.w.w.w.w.w.w.w.w.4 q.J N V N V C V V V C V V V V N V V n ;.^   w.w.w.w.w.w.w.w.w.w.w.w.w.w.w.w.w.w.w.w.w.w.",
"w.w.w.w.w.w.w.w.w.w.w.w.w.w.w.w.w.w.w.4 q.] b m V V V V V C V V V V N ` K b M 6.^   w.w.w.w.w.w.w.w.w.w.w.w.w.w.w.w.w.w.w.w.w.w.",
"w.w.w.w.w.w.w.w.w.w.w.w.w.w.w.w.w.w.w.4 q.9.+.` C m m m m m m m m m m V K [ 5.q./   w.w.w.w.w.w.w.w.w.w.w.w.w.w.w.w.w.w.w.w.w.w.",
"w.w.w.w.w.w.w.w.w.w.w.w.w.w.w.w.w.w.w., 4.q.q.q.9.1.*.&.O.o.o.o.+.&.,.6.q.q.q.q.U   w.w.w.w.w.w.w.w.w.w.w.w.w.w.w.w.w.w.w.w.w.w.",
"w.w.w.w.w.w.w.w.w.w.w.w.w.w.w.w.w.w.w.  1 U #.8.q.q.q.q.q.q.q.q.q.q.q.q.0.3./ r O w.w.w.w.w.w.w.w.w.w.w.w.w.w.w.w.w.w.w.w.w.w.w.",
"w.w.w.w.w.w.w.w.w.w.w.w.w.w.w.w.w.w.w.w.      - e t a Y R E E E T d p r 3       w.w.w.w.w.w.w.w.w.w.w.w.w.w.w.w.w.w.w.w.w.w.w.w.",
"w.w.w.w.w.w.w.w.w.w.w.w.w.w.w.w.w.w.w.w.w.w.w.w.w.                      w.w.w.w.w.w.w.w.w.w.w.w.w.w.w.w.w.w.w.w.w.w.w.w.w.w.w.w."
};
