/* XPM */
static char *_0649_8e2f43ba980e45c079979e97a4bf480a01069d52b95d941a357c6d30080c88d4[] = {
/* columns rows colors chars-per-pixel */
"64 64 120 2 ",
"   c #000000",
".  c #0A0500",
"X  c #0B0B0C",
"o  c #191206",
"O  c #141414",
"+  c #13161C",
"@  c gray10",
"#  c #271F0F",
"$  c #2C200E",
"%  c #2C2310",
"&  c #3F2F10",
"*  c #383115",
"=  c #191D24",
"-  c #242424",
";  c #292929",
":  c #3F392A",
">  c #323232",
",  c #37383A",
"<  c #3D3D3D",
"1  c #473209",
"2  c #594827",
"3  c #654E29",
"4  c #615229",
"5  c #7B6130",
"6  c #7C6B36",
"7  c #444444",
"8  c #4A4A4A",
"9  c #535353",
"0  c #5C5C5C",
"q  c #64645A",
"w  c #656565",
"e  c #6D6D6D",
"r  c #79746B",
"t  c #737373",
"y  c gray48",
"u  c #8B6F38",
"i  c #906D31",
"p  c #967631",
"a  c #907B3F",
"s  c #9B793C",
"d  c #A17F40",
"f  c #FFBE3D",
"g  c #AA994D",
"h  c #BB984D",
"j  c #9A8762",
"k  c #C69C4E",
"l  c #D3A943",
"z  c #E6B350",
"x  c #EBB554",
"c  c #E8B95D",
"v  c #F0BE61",
"b  c #FFC144",
"n  c #FFC34C",
"m  c #FFC653",
"M  c #FFC758",
"N  c #FFC95C",
"B  c #FFD55D",
"V  c #FFDE5F",
"C  c #FFCC65",
"Z  c #FFCD69",
"A  c #FFD263",
"S  c #FFDD67",
"D  c #FFD169",
"F  c #FFD86C",
"G  c #FFD071",
"H  c #FFDF70",
"J  c #FFD47D",
"K  c #FFEC68",
"L  c #FFF46B",
"P  c #FFE473",
"I  c #FFEB75",
"U  c #FFEF79",
"Y  c #FFF071",
"T  c #FFF27A",
"R  c #FFFF79",
"E  c #838383",
"W  c #8B8B8B",
"Q  c #939393",
"!  c #9D9D9D",
"~  c #A3A3A3",
"^  c #ADADAD",
"/  c #B2B3B5",
"(  c #BCBCBC",
")  c #D6BD80",
"_  c #FFD683",
"`  c #FFD68B",
"'  c #FFD98C",
"]  c #FFDB94",
"[  c #FFDE9C",
"{  c #FFEF81",
"}  c #FFE39A",
"|  c #FFF595",
" . c #FFDFA1",
".. c #FFE1A4",
"X. c #FFE3AB",
"o. c #FFFEA0",
"O. c #FFE6B4",
"+. c #FFEBB2",
"@. c #FFE9BB",
"#. c #C4C4C4",
"$. c #CBCBCB",
"%. c #D5D5D5",
"&. c #DBDBDB",
"*. c #FFECC3",
"=. c #FFEECB",
"-. c #FFFEC0",
";. c #FFF1D4",
":. c #FFF4DE",
">. c #FFFFDD",
",. c #E2E2E2",
"<. c #ECECEC",
"1. c #FFF7E6",
"2. c #FFF9E7",
"3. c #FFF9EC",
"4. c #EAEDF2",
"5. c #F5F5F5",
"6. c #FFFCF5",
"7. c #F6F7FA",
"8. c #FFFFFF",
"9. c None",
/* pixels */
"9.9.9.9.9.9.9.9.9.9.9.9.9.9.9.9.9.9.9.9.9.9.9.9.9.9.9.9.9.9.9.9.9.9.9.9.9.9.9.9.9.9.9.9.9.9.9.9.9.9.9.9.9.9.9.9.9.9.9.9.9.9.9.9.",
"9.9.9.9.9.9.9.9.9.9.9.9.9.9.9.9.9.9.9.9.9.9.9.9.9.9.9.9.9.9.9.9.9.9.9.9.9.9.9.9.9.9.9.9.9.9.9.9.9.9.9.9.9.9.9.9.9.9.9.9.9.9.9.9.",
"9.9.9.9.9.9.9.9.9.9.9.9.9.9.9.9.9.9.9.9.9.9.9.9.9.9.9.9.    9.9.9.9.9.9.9.9.9.9.9.9.9.9.9.9.9.9.9.9.9.9.9.9.9.9.9.9.9.9.9.9.9.9.",
"9.9.9.9.9.9.9.9.9.9.9.9.9.9.9.9.9.9.9.9.9.9.9.                  9.9.9.9.9.9.9.9.9.9.9.9.9.9.9.9.9.9.9.9.9.9.9.9.9.9.9.9.9.9.9.9.",
"9.9.9.9.9.9.9.9.9.9.9.9.9.9.9.9.9.9.                  < Q w X     9.      9.9.9.9.9.9.9.9.9.9.9.9.9.9.9.9.9.9.9.9.9.9.9.9.9.9.9.",
"9.9.9.9.9.9.9.9.9.9.9.9.9.9.9.9.9.    ; w @ ; ^ #.w Q 8.8.8.%.                9.9.9.9.9.9.9.9.9.9.9.9.9.9.9.9.9.9.9.9.9.9.9.9.9.",
"9.9.9.9.9.9.9.9.9.9.9.9.9.9.9.9.    e 8.8.7.8.8.8.8.8.8.8.8.8.t   O ~ %.! X             9.9.9.9.9.9.9.9.9.9.9.9.9.9.9.9.9.9.9.9.",
"9.9.9.9.9.9.9.9.9.9.9.9.9.9.9.9.  ; 8.8.8.8.8.8.8.8.8.8.8.8.8.<.W &.8.8.8.$.      X       9.9.9.9.9.9.9.9.9.9.9.9.9.9.9.9.9.9.9.",
"9.9.9.9.9.9.9.9.9.9.9.9.9.9.9.9.  8 8.8.8.8.8.8.8.8.8.8.8.8.8.8.8.8.8.8.8.8.t O / 8.,.7     9.9.9.9.9.9.9.9.9.9.9.9.9.9.9.9.9.9.",
"9.9.9.9.9.9.9.9.9.9.9.9.9.9.      ; 8.8.8.8.8.8.8.8.8.8.8.8.8.8.8.8.8.8.8.8.8.8.8.8.8.8.;   9.9.9.9.9.9.9.9.9.9.9.9.9.9.9.9.9.9.",
"9.9.9.9.9.9.9.9.9.9.9.9.9.    O 7 ^ 8.8.8.8.8.8.8.8.8.8.8.8.8.8.8.8.8.8.8.8.8.8.8.8.8.8.t   9.9.9.9.9.9.9.9.9.9.9.9.9.9.9.9.9.9.",
"9.9.9.9.9.9.9.9.9.9.9.9.9.  ; 8.8.8.8.8.8.8.8.8.8.8.8.8.8.8.8.8.8.8.8.8.8.8.8.8.8.8.8.8.E     9.9.9.9.9.9.9.9.9.9.9.9.9.9.9.9.9.",
"9.9.9.9.9.9.9.9.9.9.9.9.    $.8.8.8.8.8.8.8.8.8.8.8.8.8.8.8.8.8.8.8.8.8.8.8.8.8.8.8.8.8.8.7     9.9.9.9.9.9.9.9.9.9.9.9.9.9.9.9.",
"9.9.9.9.9.9.9.9.9.9.9.9.  @ 8.8.8.8.8.8.8.8.8.8.8.8.8.8.8.8.8.8.8.8.8.8.8.8.8.8.8.8.8.8.8.&.    9.9.9.9.9.9.9.9.9.9.9.9.9.9.9.9.",
"9.9.9.9.9.9.9.9.9.9.9.    y 8.8.8.8.8.8.8.8.8.8.8.8.8.8.8.8.8.8.8.8.8.8.8.8.8.8.8.8.8.8.8.<.    9.9.9.9.9.9.9.9.9.9.9.9.9.9.9.9.",
"9.9.9.9.9.9.9.9.9.9.9.    &.8.8.8.8.8.8.8.8.8.8.8.8.8.8.8.8.8.8.8.8.8.8.8.8.8.8.8.8.8.8.8.!     9.9.9.9.9.9.9.9.9.9.9.9.9.9.9.9.",
"9.9.9.9.9.9.9.9.9.9.9.  , 8.8.8.8.8.8.8.8.8.8.8.8.8.8.8.8.8.8.8.8.8.8.8.8.8.8.8.8.8.8.8.8.0     9.9.9.9.9.9.9.9.9.9.9.9.9.9.9.9.",
"9.9.9.9.9.9.9.9.9.9.    8 8.8.8.8.8.8.8.8.8.8.8.8.8.8.8.8.8.8.8.8.8.8.8.8.8.8.8.8.8.8.8.8./     9.9.9.9.9.9.9.9.9.9.9.9.9.9.9.9.",
"9.9.9.9.9.9.9.9.9.9.9.  - 8.8.8.8.8.8.8.8.8.8.8.8.8.8.8.8.8.8.8.8.8.8.8.8.8.8.8.8.8.8.8.8.<.X   9.9.9.9.9.9.9.9.9.9.9.9.9.9.9.9.",
"9.9.9.9.9.9.9.9.9.9.9.    / 8.8.8.8.8.8.8.8.8.8.8.8.8.8.8.8.8.8.8.8.8.8.8.8.8.8.8.8.8.8.8.<.    9.9.9.9.9.9.9.9.9.9.9.9.9.9.9.9.",
"9.9.9.9.9.9.9.9.9.9.9.9.  O <.8.8.8.8.8.8.8.8.8.8.8.8.8.8.8.8.8.8.8.8.8.8.8.8.8.8.8.8.8.8.%.            9.9.9.9.9.9.9.9.9.9.9.9.",
"9.9.9.9.9.9.9.9.9.9.9.9.    7 8.8.8.8.8.8.8.8.8.8.8.8.8.8.8.8.8.8.8.8.8.8.8.8.8.8.8.8.8.8.<.    t E 8     9.9.9.9.9.9.9.9.9.9.9.",
"9.9.9.9.9.9.9.9.9.9.9.9.    < 8.8.8.8.8.8.8.8.8.8.8.8.8.8.8.8.8.8.8.8.8.8.8.8.8.8.8.8.8.8.$.  , 8.8.8.0   9.9.9.9.9.9.9.9.9.9.9.",
"9.9.9.9.9.9.9.9.9.9.9.9.    t 8.8.8.8.8.8.8.8.8.8.8.8.8.8.8.8.8.8.8.8.8.8.8.8.8.8.8.8.8.5.;   O ! 8.8.#.    9.9.9.9.9.9.9.9.9.9.",
"9.9.9.9.9.9.9.9.9.9.9.9.    w 8.8.8.8.8.8.8.8.8.8.8.8.8.8.8.8.8.8.8.8.8.8.8.8.8.8.8.e @           E 8.$.    9.9.9.9.9.9.9.9.9.9.",
"9.9.9.9.9.9.9.9.9.9.9.9.    , 8.8.8.8.8.8.8.8.8.8.8.8.8.8.8.8.8.8.8.8.8.8.8.8.8.8.,.          9.  > 8.%.    9.9.9.9.9.9.9.9.9.9.",
"9.9.9.9.9.9.9.9.9.9.9.9.      %.8.8.8.8.8.8.8.8.8.8.8.8.8.8.8.8.8.8.8.( ~ 7.8.8.8.Q   e #.    9.  ; 8.%.    9.9.9.9.9.9.9.9.9.9.",
"9.9.9.9.9.9.9.9.9.9.9.9.      8 8.8.8.8.8.8.8.8.8.8.7.< 7 7.8.8.8.8.t     , $.&.y     ,.%.    9.  ; 8.%.    9.9.9.9.9.9.9.9.9.9.",
"9.9.9.9.9.9.9.9.9.9.9.9.  X @   e 8.8.8.8.8.8.8.8.8.Q     w 8.8.8.$.  . $           j 8./     9.  ; 8.%.    9.9.9.9.9.9.9.9.9.9.",
"9.9.9.9.9.9.9.9.9.9.9.9.  > W   7 8.8.8.8.8.8.8.8.8.#.      , Q e     6 U i 1 & 3 l o.8./     9.  ; 8.%.    9.9.9.9.9.9.9.9.9.9.",
"9.9.9.9.9.9.9.9.9.9.9.9.  ; w   W 8.8.8.8.8.8.8.8.8.<.  . #         5 P K T | P Y V ` 8./     9.  ; 8.%.    9.9.9.9.9.9.9.9.9.9.",
"9.9.9.9.9.9.9.9.9.9.9.9.  > w   W 8.8.8.8.8.8.8.8.8.(   * P k u d c T C Z *.2.@.C n ' 8./     9.  ; 8.%.    9.9.9.9.9.9.9.9.9.9.",
"9.9.9.9.9.9.9.9.9.9.9.9.  ; ^   O 5.8.8.8.8.8.8.8.,.O   p L P T T F C m ] 3.=.2._ b ` 8./     9.  ; 8.%.    9.9.9.9.9.9.9.9.9.9.",
"9.9.9.9.9.9.9.9.9.9.9.9.  X 8.w   O w ( 8.8.8.8.8.Q   : -.} N C C C C N G =.2.*.C n ' 8./     9.  ; 8.%.    9.9.9.9.9.9.9.9.9.9.",
"9.9.9.9.9.9.9.9.9.9.9.9.    7.8.2       <.8.8.8.8.^   q 8.2.' M Z C C Z N D ' Z N m ` 8./     9.  ; 8.%.    9.9.9.9.9.9.9.9.9.9.",
"9.9.9.9.9.9.9.9.9.9.9.9.    4.8.{ z %   ~ 8.8.8.8.t   r 8.3.[ m C C C Z Z N m N C m ' 8./     9.  ; 8.%.    9.9.9.9.9.9.9.9.9.9.",
"9.9.9.9.9.9.9.9.9.9.9.9.    4.8.G R g   X #.8.8.!     ) >.O.Z C C C Z C Z C C C C m ` 8./     9.  ; 8.%.    9.9.9.9.9.9.9.9.9.9.",
"9.9.9.9.9.9.9.9.9.9.9.9.  X 4.8.G N I 4     = +     a Y C N N Z C C C C C Z C M C M ` 8./     9.  ; 8.%.    9.9.9.9.9.9.9.9.9.9.",
"9.9.9.9.9.9.9.9.9.9.9.9.    4.8.G M F I s o     $ h U D N C C C N C N C C N Z O.G n ' 8./     9.  ; 8.%.    9.9.9.9.9.9.9.9.9.9.",
"9.9.9.9.9.9.9.9.9.9.9.9.    4.8.G M C A K B x v P I C C C C C C O.*.J N C C Z [ Z n ' 8./     9.  ; 8.%.    9.9.9.9.9.9.9.9.9.9.",
"9.9.9.9.9.9.9.9.9.9.9.9.    4.8.G M N Z X.+.H F D C Z N M Z N G 1.8.] m C Z C m C m ' 8./         9 8.%.    9.9.9.9.9.9.9.9.9.9.",
"9.9.9.9.9.9.9.9.9.9.9.9.    4.8.G M M X.3.3.O.M C C M ] [ N C N ' ..C C C C C C C m ' 8./       @ &.8.$.    9.9.9.9.9.9.9.9.9.9.",
"9.9.9.9.9.9.9.9.9.9.9.9.    4.8.G M M @.2.1.*.N C C M ] ] M C C M m C C C C C C N m ' 8./   9 8.8.8.8.!     9.9.9.9.9.9.9.9.9.9.",
"9.9.9.9.9.9.9.9.9.9.9.9.  X 4.8.G N N G *.=.J N C C Z M M Z C Z C C C C C Z N C Z n ' 8./   w 8.5.<./ X   9.9.9.9.9.9.9.9.9.9.9.",
"9.9.9.9.9.9.9.9.9.9.9.9.    4.8.G N Z N C C M C C Z C M N N C C C C Z C C C C @.:.G J 8./                 9.9.9.9.9.9.9.9.9.9.9.",
"9.9.9.9.9.9.9.9.9.9.9.9.    4.8.G N C C C N C C C N C O.@.Z C C C Z m N Z N C ;.8._ J 8./             9.9.9.9.9.9.9.9.9.9.9.9.9.",
"9.9.9.9.9.9.9.9.9.9.9.9.    4.8.G M C C C C C C C M _ 6.6._ m C C N [ ` N C N J ] n ' 8./     9.9.9.9.9.9.9.9.9.9.9.9.9.9.9.9.9.",
"9.9.9.9.9.9.9.9.9.9.9.9.  X 4.8.D N Z N m N Z Z C C C } X.Z C C C N ..' N C Z N m n ' 8./     9.9.9.9.9.9.9.9.9.9.9.9.9.9.9.9.9.",
"9.9.9.9.9.9.9.9.9.9.9.9.  X 4.8.G N N J O.J N C C Z C m m C D N N Z M C C m C C C m ' 8./     9.9.9.9.9.9.9.9.9.9.9.9.9.9.9.9.9.",
"9.9.9.9.9.9.9.9.9.9.9.9.    4.8.G N M *.8.@.M C C C C C C Z C _ _ N C N J ] C C C m ' 8./     9.9.9.9.9.9.9.9.9.9.9.9.9.9.9.9.9.",
"9.9.9.9.9.9.9.9.9.9.9.9.    4.8.G m N ' =.' N C C C C Z C C m ..[ m C N _ X.C C C m ' 8./     9.9.9.9.9.9.9.9.9.9.9.9.9.9.9.9.9.",
"9.9.9.9.9.9.9.9.9.9.9.9.    4.8.G N Z N N N Z C Z C C C C C Z C C Z C Z N N C C C n ' 8./     9.9.9.9.9.9.9.9.9.9.9.9.9.9.9.9.9.",
"9.9.9.9.9.9.9.9.9.9.9.9.  X 4.8.Z N C C C C C C C C Z C C C Z C C C C C C M N Z C m ` 8./     9.9.9.9.9.9.9.9.9.9.9.9.9.9.9.9.9.",
"9.9.9.9.9.9.9.9.9.9.9.9.    4.8.C n Z C C C Z C C C C C C C C C C C C C N [ ` N Z f J 8./     9.9.9.9.9.9.9.9.9.9.9.9.9.9.9.9.9.",
"9.9.9.9.9.9.9.9.9.9.9.9.    <.8.;.N b n N C C C Z C C C Z C C Z C C Z C N } ` f b G 1.8./     9.9.9.9.9.9.9.9.9.9.9.9.9.9.9.9.9.",
"9.9.9.9.9.9.9.9.9.9.9.9.    <.8.8.6.O.` Z m n n n n m m m m m m m n n n n n C ' *.8.8.8./     9.9.9.9.9.9.9.9.9.9.9.9.9.9.9.9.9.",
"9.9.9.9.9.9.9.9.9.9.9.9.    <.8.8.8.8.8.6.:.@.X...] ` _ _ J J ` ' [ ..X.*.:.8.8.8.8.8.8./     9.9.9.9.9.9.9.9.9.9.9.9.9.9.9.9.9.",
"9.9.9.9.9.9.9.9.9.9.9.9.    9 7.8.8.8.8.8.8.8.8.8.8.8.8.8.8.8.8.8.8.8.8.8.8.8.8.8.8.8.,.>   9.9.9.9.9.9.9.9.9.9.9.9.9.9.9.9.9.9.",
"9.9.9.9.9.9.9.9.9.9.9.9.9.      9 ^ &.8.8.8.8.8.8.8.8.8.8.8.8.8.8.8.8.8.8.8.8.8.&.! <       9.9.9.9.9.9.9.9.9.9.9.9.9.9.9.9.9.9.",
"9.9.9.9.9.9.9.9.9.9.9.9.9.9.          ; 0 y Q ~ #.%.,.<.<.<.<.<.,.$.( ~ W t 9 O         9.9.9.9.9.9.9.9.9.9.9.9.9.9.9.9.9.9.9.9.",
"9.9.9.9.9.9.9.9.9.9.9.9.9.9.9.9.9.                      X X X                       9.9.9.9.9.9.9.9.9.9.9.9.9.9.9.9.9.9.9.9.9.9.",
"9.9.9.9.9.9.9.9.9.9.9.9.9.9.9.9.9.9.9.9.9.9.9.                          9.9.9.9.9.9.9.9.9.9.9.9.9.9.9.9.9.9.9.9.9.9.9.9.9.9.9.9.",
"9.9.9.9.9.9.9.9.9.9.9.9.9.9.9.9.9.9.9.9.9.9.9.9.9.9.9.9.9.9.9.9.9.9.9.9.9.9.9.9.9.9.9.9.9.9.9.9.9.9.9.9.9.9.9.9.9.9.9.9.9.9.9.9.",
"9.9.9.9.9.9.9.9.9.9.9.9.9.9.9.9.9.9.9.9.9.9.9.9.9.9.9.9.9.9.9.9.9.9.9.9.9.9.9.9.9.9.9.9.9.9.9.9.9.9.9.9.9.9.9.9.9.9.9.9.9.9.9.9."
};
