/* XPM */
static char *_5856_d62c8f56aab7adb3b2bbdcd8e982f2beec0a4854464be2d1b8a0b43b35b506d6[] = {
/* columns rows colors chars-per-pixel */
"64 64 201 2 ",
"   c #000000",
".  c #0A0809",
"X  c #161616",
"o  c #251F00",
"O  c #382C01",
"+  c #3B3301",
"@  c #363101",
"#  c #282218",
"$  c #352D1F",
"%  c #24242E",
"&  c #3C3323",
"*  c #373737",
"=  c #352E28",
"-  c #453701",
";  c #463D02",
":  c #4B3F02",
">  c #453C29",
",  c #4F4202",
"<  c #544902",
"1  c #574602",
"2  c #5D5403",
"3  c #6B5903",
"4  c #675802",
"5  c #68581A",
"6  c #756301",
"7  c #7B6A02",
"8  c #786807",
"9  c #7F7203",
"0  c #786419",
"q  c #6B6203",
"w  c #4D422E",
"e  c #5A4D35",
"r  c #595225",
"t  c #6A5B29",
"y  c #604F35",
"u  c #685838",
"i  c #5C5A57",
"p  c #6B5A42",
"a  c #705F42",
"s  c #736244",
"d  c #7C6A49",
"f  c #796647",
"g  c #7D6853",
"h  c #726C4F",
"j  c #6A6868",
"k  c #7E796E",
"l  c #6F7073",
"z  c #836C03",
"x  c #8E7600",
"c  c #877902",
"v  c #8E7C04",
"b  c #827603",
"n  c #937D04",
"m  c #90770E",
"M  c #836F14",
"N  c #8F7B1A",
"B  c #826F27",
"V  c #8C772C",
"C  c #937E22",
"Z  c #846F3E",
"A  c #847036",
"S  c #826F4C",
"D  c #85714E",
"F  c #8C7E4F",
"G  c #826D52",
"H  c #897551",
"J  c #8E7954",
"K  c #887555",
"L  c #917C55",
"P  c #947E58",
"I  c #857C69",
"U  c #947D64",
"Y  c #938204",
"T  c #9B8402",
"R  c #9C8C04",
"E  c #998609",
"W  c #9C8817",
"Q  c #A88E04",
"!  c #A68B09",
"~  c #A49203",
"^  c #AC9B04",
"/  c #A89404",
"(  c #B39C02",
")  c #B39904",
"_  c #AF8C10",
"`  c #B19210",
"'  c #BBA301",
"]  c #BDAB03",
"[  c #B6A404",
"{  c #9B8923",
"}  c #988223",
"|  c #918132",
" . c #A88C2D",
".. c #C1A203",
"X. c #C1AA03",
"o. c #CCAA00",
"O. c #CBA200",
"+. c #D0AC00",
"@. c #C3B203",
"#. c #CEBA05",
"$. c #CCB404",
"%. c #D2BA01",
"&. c #D8BC03",
"*. c #D6B302",
"=. c #E4B700",
"-. c #E4BF05",
";. c #DAC403",
":. c #D6C303",
">. c #E3C402",
",. c #E9C201",
"<. c #E3CC02",
"1. c #EBCF06",
"2. c #FFCD05",
"3. c #F4C701",
"4. c #E6D404",
"5. c #ECD402",
"6. c #ECD805",
"7. c #FFD404",
"8. c #F4DC04",
"9. c #FFDB04",
"0. c #F5E604",
"q. c #FFE305",
"w. c #FEE905",
"e. c #FEF305",
"r. c #FFFA05",
"t. c #E9E103",
"y. c #958A48",
"u. c #968059",
"i. c #9B845C",
"p. c #9C905D",
"a. c #A1895F",
"s. c #A68F48",
"d. c #8C867D",
"f. c #978772",
"g. c #9F9466",
"h. c #A58C61",
"j. c #A48C69",
"k. c #AD9466",
"l. c #B19769",
"z. c #B49A6A",
"x. c #BA9E6D",
"c. c #A8967A",
"v. c #B3987E",
"b. c #BCA16F",
"n. c #BFA270",
"m. c #C1A572",
"M. c #C9AB77",
"N. c #CEAF79",
"B. c #C5A876",
"V. c #CFB07A",
"C. c #D1B27B",
"Z. c #D9B97F",
"A. c #65678A",
"S. c #827E8B",
"D. c #888789",
"F. c #9D988F",
"G. c #959494",
"H. c #9F9C99",
"J. c #948E85",
"K. c #B99E82",
"L. c #BCA183",
"P. c #A8A7A9",
"I. c #A6A7B9",
"U. c #B4B5B5",
"Y. c #BABBBB",
"T. c #CAAD8A",
"R. c #CEB18A",
"E. c #DCBB81",
"W. c #D7B888",
"Q. c #D7B88B",
"!. c #E0BF83",
"~. c #E3C185",
"^. c #E5C389",
"/. c #E9C689",
"(. c #EDCA8B",
"). c #F2CE8E",
"_. c #F4D08F",
"`. c #E8C691",
"'. c #9BA0C1",
"]. c #AAAEC8",
"[. c #B7BBCF",
"{. c #BFC1D5",
"}. c #C3C3C3",
"|. c #CBCBCB",
" X c #C3C4CA",
".X c #C4C8D8",
"XX c #D4D4D4",
"oX c #D8D8D8",
"OX c #C8CBE2",
"+X c #CDD2E6",
"@X c #D1D4E5",
"#X c #D8DDF7",
"$X c #DDE1F9",
"%X c #E5E7E9",
"&X c #EBEEF5",
"*X c #E8EEFF",
"=X c #E5E8FF",
"-X c #EEF2FE",
";X c #FFFFFF",
":X c #F4F6FB",
">X c None",
/* pixels */
">X>X>X>X>X>X>X>X>X>X>X>X>X>X>X>X>X>X>X>X>X>X>X>X>X>X>X>X>X>X>X>X>X>X>X>X>X>X>X>X>X>X>X>X>X>X>X>X>X>X>X>X>X>X>X>X>X>X>X>X>X>X>X>X",
">X>X>X>X>X>X>X>X>X>X>X>X>X>X>X>X>X>X>X>X>X>X>X>X>X>X>X>X>X>X>X>X>X>X>X>X>X>X>X>X>X>X>X>X>X>X>X>X>X>X>X>X>X>X>X>X>X>X>X>X>X>X>X>X",
">X>X>X>X>X>X>X>X>X>X>X>X>X>X>X>X>X>X>X>X>X>X>X>X>X>X>X  >X>X>X>X>X>X>X>X>X>X>X>X>X>X>X>X>X>X>X>X>X>X>X>X>X>X>X>X>X>X>X>X>X>X>X>X",
">X>X>X>X>X>X>X>X>X>X>X>X>X>X>X>X>X>X>X>X>X>X>X>X>X>X  >X>X>X>X>X>X>X>X>X>X>X>X  >X>X>X>X>X>X>X>X>X>X>X>X>X>X>X>X>X>X>X>X>X>X>X>X",
">X>X>X>X>X>X>X>X>X>X>X>X>X>X>X>X>X>X>X>X>X>X>X>X>X>X>X>X>X>X>X>X>X>X>X>X>X>X>X>X>X>X>X>X>X>X>X>X>X>X>X>X>X>X>X>X>X>X>X>X>X>X>X>X",
">X>X>X>X>X>X>X>X>X>X>X>X>X>X>X>X>X>X>X>X>X>X>X>X>X  >X, 3 m R / ^ ^ ^ ! Y z 2 :   >X>X>X>X>X>X>X>X>X>X>X>X>X>X>X>X>X>X>X>X>X>X>X",
">X>X>X>X>X>X>X>X>X>X>X>X>X>X>X>X>X>X>X>X>X>X>XO v ..<.q.q.q.q.9.q.q.q.9.9.q.q.6.[ , >X>X>X>X>X>X>X>X>X>X>X>X>X>X>X>X>X>X>X>X>X>X",
">X>X>X>X>X>X>X>X>X>X>X>X>X>X>X>X>X>X>X>X>X>X! 9.w.q.2.2.2.2.2.2.2.2.2.2.2.2.2.2.q.w.m >X>X>X>X>X>X>X>X>X>X>X>X>X>X>X>X>X>X>X>X>X",
">X>X>X>X>X>X>X>X>X>X>X>X>X>X>X>X>X>X>X>X, 4.q.7.2.2.2.2.2.2.2.2.2.2.2.2.2.2.2.2.2.2.e.! >X>X>X>X>X>X>X>X>X>X>X>X>X>X>X>X>X>X>X>X",
">X>X>X>X>X>X>X>X>X>X>X>X>X>X>X>X>X>X>X; 0.9.2.2.2.2.2.2.2.2.2.2.2.2.2.2.2.2.2.2.2.2.2.e.9 >X>X>X>X>X>X>X>X>X>X>X>X>X>X>X>X>X>X>X",
">X>X>X>X>X>X>X>X>X>X>X>X>X>X>X>X>X>X>X4.9.2.2.2.2.2.2.2.2.2.2.2.2.2.2.2.2.2.2.2.2.2.2.7.w.; >X>X>X>X>X>X>X>X>X>X>X>X>X>X>X>X>X>X",
">X>X>X>X>X>X>X>X>X>X>X>X>X>X>X>X>X>XW w.2.2.2.2.2.2.2.2.2.2.2.2.2.2.2.2.2.2.2.2.2.2.2.2.9.:.>X>X>X>X>X>X>X>X>X>X>X>X>X>X>X>X>X>X",
">X>X>X>X>X>X>X>X>X>X>X>X>X>X>X>X>X>X6.7.2.2.2.2.2.2.2.2.2.2.2.2.2.2.2.2.2.2.2.2.2.2.2.2.2.w.q >X>X>X>X>X>X>X>X>X>X>X>X>X>X>X>X>X",
">X>X>X>X>X>X>X>X>X>X>X>X>X>X>X>X>X2 q.2.2.2.2.2.2.2.2.2.2.2.2.2.2.2.2.2.2.2.2.2.2.2.2.2.2.9.:.>X>X>X>X>X>X>X>X>X>X>X>X>X>X>X>X>X",
">X>X>X>X>X>X>X>X>X>X>X>X>X>X>X>X>X[ q.2.2.2.2.2.2.2.2.2.2.7.2.2.2.2.2.2.2.2.2.2.2.2.2.2.2.2.q., >X>X>X>X>X>X>X>X>X>X>X>X>X>X>X>X",
">X>X>X>X>X>X>X>X>X>X>X>X>X>X>X>X>X>.7.2.2.2.2.2.2.2.2.2.2.2.2.2.2.2.2.2.2.2.2.2.2.2.2.2.2.2.q.Y >X>X>X>X>X>X>X>X>X>X>X>X>X>X>X>X",
">X>X>X>X>X>X>X>X>X>X>X>X>X>X>X>X+ 8.7.2.2.2.2.2.2.2.2.2.2.2.2.2.2.2.2.2.2.2.2.2.2.2.2.2.2.2.9.@.>X>X>X>X>X>X>X>X>X>X>X>X>X>X>X>X",
">X>X>X>X>X>X>X>X>X>X>X>X>X>X>X>X< q.2.2.2.2.2.2.2.2.2.2.2.2.2.2.2.2.2.2.2.2.2.2.2.2.2.2.2.2.7.;.>X>X>X>X>X>X>X>X>X>X>X>X>X>X>X>X",
">X>X>X>X>X>X>X>X>X>X>X>X>X>X>X>X3 q.2.2.2.2.2.2.2.2.2.2.2.2.2.2.2.2.7.2.2.2.2.2.2.2.2.2.2.2.7.;.>X>X>X>X>X>X>X>X>X>X>X>X>X>X>X>X",
">X>X>X>X>X>X>X>X>X>X>X>X>X>X>X>X6 q.2.2.2.2.2.2.7.2.2.2.2.2.2.2.2.2.2.2.2.2.2.2.2.2.2.2.2.2.9.#.>X>X>X>X>X>X>X>X>X>X>X>X>X>X>X>X",
">X>X>X>X>X>X>X>X>X>X>X>X>X>X>X>X8 q.2.2.2.2.2.2.2.2.2.2.2.2.2.2.2.2.2.2.2.2.2.2.2.2.2.2.2.2.9.#.>X>X>X>X>X>X>X>X>X>X>X>X>X>X>X>X",
">X>X>X>X>X>X>X>X>X>X>X>X>X>X>X>Xz q.2.2.2.2.2.2.2.2.2.2.2.2.2.2.2.2.2.2.2.2.2.2.2.2.2.2.2.2.9.] >X>X>X>X>X>X>X>X>X>X>X>X>X>X>X>X",
">X>X>X>X>X>X>X>X>X>X>X>X>X>X>X>X8 9.2.2.7.2.2.2.2.2.2.2.2.2.2.2.2.2.2.2.2.2.2.2.2.2.2.2.2.2.9.[ >X>X>X>X>X>X>X>X>X>X>X>X>X>X>X>X",
">X>X>X>X>X>X>X>X>X>X>X>X>X>X>X>X3 q.2.2.2.2.2.2.2.2.2.2.2.2.2.2.2.2.7.2.2.2.2.2.2.2.2.2.2.2.9./ >X>X>X>X>X>X>X>X>X>X>X>X>X>X>X>X",
">X>X>X>X>X>X>X>X>X>X>X>X>X>X>X>Xz q.7.7.2.2.2.2.2.2.2.2.2.2.2.2.2.7.2.2.2.2.2.2.2.7.7.7.9.9.q.#.>X>X>X>X>X>X>X>X>X>X>X>X>X>X>X>X",
">X>X>X>X>X>X>X>X>X>X>X>X>X>X>X7 q.,.=.3.7.9.9.7.7.7.7.2.2.9.2.2.2.7.2.7.7.9.9.7.2.-.*.+...( o.r.b >X>X>X>X>X>X>X>X>X>X>X>X>X>X>X",
">X>X>X>X>X>X>X>X>X>X>X>X>X>X>Xt.] I c.p.y.| } _ O.&.>.7.9.' 2.2.1.E 9.>.O._ } | y.g.c.F.P.I.S.[ #.>X>X>X>X>X>X>X>X>X>X>X>X>X>X>X",
">X>X>X>X>X>X>X>X>X>X>X>X>X>X>X6 d.:X;X;X*X#X+X|.Y.G.I { T T 8.2.7.` 6 I U.|.+X$X-X;X;X;X;X;X;XJ.- >X>X>X>X>X>X>X>X>X>X>X>X>X>X>X",
">X>X>X>X>X>X>X>X>X>X>X>X>X>X>X% &X;X;X;X;X;X;X;X;X;X;X].0 0.2.2.2.0.s =X;X;X;X;X;X;X;X;X;X;X;X&X% >X>X>X>X>X>X>X>X>X>X>X>X>X>X>X",
">X>X>X>X>X>X>X>X>X>X>X>X>X>X>XD.;X;X;X;X;X;X;X;X;X;X;X-Xy.3.2.2.7.' P.;X;X;X;X;X;X;X;X;X;X;X;X;XD.>X>X>X>X>X>X>X>X>X>X>X>X>X>X>X",
">X>X>X>X>X>X>X>X>X>X>X>X>X>X>X X;X;X;X;X;X|.oX;X;X;X;X;XF.+.9.2.9.W OX;X;X;X;X;X;X%X;X;X;X;X;X;X X>X>X>X>X>X>X>X>X>X>X>X>X>X>X>X",
">X>X>X>X>X>X>X>X>X>X>X>X>X>X>XXX;X;X;X;XP.. X |.;X;X;X;XI.' 9.2.9.{ #X;X;X;X;X;XD.X i :X;X;X;X;XXX>X>X>X>X>X>X>X>X>X>X>X>X>X>X>X",
">X>X>X>X>X>X>X>X>X>X>X>X>X>X>XXX;X;X;X;XG.    {.;X;X;X;XI.' 7.2.9.{ #X;X;X;X;X;X*   X %X;X;X;X;X|.>X>X>X>X>X>X>X>X>X>X>X>X>X>X>X",
">X>X>X>X>X>X>X>X>X>X>X>X>X>X>X[.;X;X;X;X:XH.U.;X;X;X;X;XD.o.7.2.9.! '.;X;X;X;X;XXXj Y.;X;X;X;X;XG.>X>X>X>X>X>X>X>X>X>X>X>X>X>X>X",
">X>X>X>X>X>X>X>X>X>X>X>X>X>X>Xj ;X;X;X;X;X;X;X;X;X;X;X{.} 8.2.2.7.5.r .X;X;X;X;X;X;X;X;X;X;X;X:X= >X>X>X>X>X>X>X>X>X>X>X>X>X>X>X",
">X>X>X>X>X>X>X>X>X>X>X>X>X>X>X.  X;X;X;X;X;X;X;X;X;X;Xg <.7.2.2.2.9.&.i *X;X;X;X;X;X;X;X;X;X;Xl >X>X>X>X>X>X>X>X>X>X>X>X>X>X>X>X",
">X>X>X>X>X>X>X>X>X>X>X>X>X>XR @.= [.;X;X;X;X;X;X;X-XA.c q.2.2.2.2.2.w.6 j +X;X;X;X;X;X;X;X+XI >X>X>X>X>X>X>X>X>X>X>X>X>X>X>X>X>X",
">X>X>X>X>X>X>X>X>X>X>X>X>Xc r.q.T m D..X&X-X-X%XI.J x [ 9.2.2.2.2.2.q.~ ' C f.I.{.+X.XI.f.{ Q + R 3 >X>X>X>X>X>X>X>X>X>X>X>X>X>X",
">X>X>X>X>X>X>X>X>X>X>X>X>X4.7.2.7.9.*.Q  .s.s._ ( 0.5.x 9.2.2.2.2.2.9.7 5.e.,.( ) ` ) ( &.9.-.1.e.r.4 >X>X>X>X>X>X>X>X>X>X>X>X>X",
">X>X>X>X>X>X>X>X>X>X>X>X- 9.9.2.2.2.7.9.7.3.7.q.<.E V y X.w.7.2.2.w.~ p V m &.w.w.7.7.9.7.2.7.q.,.9.] >X>X>X>X>X>X>X>X>X>X>X>X>X",
">X>X>X>X>X>X>X>X>X>X>X>X8 &.b 5.7.2.2.2.7.q.%.M f c.R.Q.u ^ 3.7.,.Y g `.R.v.D 0 ' q.7.2.2.2.9.~ n q.#.>X>X>X>X>X>X>X>X>X>X>X>X>X",
">X>X>X>X>X>X>X>X>X>X>X>X; e.' 8 8.2.2.7.8.v f K.^.E.C.Z.Q.U A B Z j.Q.V.C.Z.^.T.G 9 4.7.2.7.$.8 8.9.] >X>X>X>X>X>X>X>X>X>X>X>X>X",
">X>X>X>X>X>X>X>X>X>X>X>X>X#.r.R ^ 7.7.5.0 f.^.E.N.C.C.V.C.!.Q.R.W.!.C.C.C.C.V.Z.!.K.t %.9.9.Y #.7.q.m >X>X>X>X>X>X>X>X>X>X>X>X>X",
">X>X>X>X>X>X>X>X>X>X>X>X>X+ 6.0.n 9.5.5 K./.N.N.C.C.C.C.C.C.C.C.C.V.C.C.C.C.V.V.N.!.T.u :.7.! 7.7.w.@ >X>X>X>X>X>X>X>X>X>X>X>X>X",
">X>X>X>X>X>X>X>X>X>X>X>X>X>X>X3 3 0.0 K.!.V.V.V.C.V.C.C.C.C.C.C.C.C.C.C.C.C.C.C.R.N.Z.R.t ;.z 8.0.8 >X>X>X>X>X>X>X>X>X>X>X>X>X>X",
">X>X>X>X>X>X>X>X>X>X>X>X>X>X>X>X; E f.!.N.V.C.C.C.C.C.C.C.C.C.V.C.C.V.C.C.C.V.C.C.C.C.!.n.M o >XO >X>X>X>X>X>X>X>X>X>X>X>X>X>X>X",
">X>X>X>X>X>X>X>X>X>X>X>X>X>X>X>X>Xf ^.C.C.C.C.C.C.C.C.C.V.C.C.C.C.C.C.C.C.C.C.C.C.C.C.N.).J >X>X>X>X>X>X>X>X>X>X>X>X>X>X>X>X>X>X",
">X>X>X>X>X>X>X>X>X>X>X>X>X>X>X>X>XB.!.V.C.V.C.C.C.V.C.C.C.C.C.C.C.V.C.C.V.C.C.C.C.C.N.C.W.E.# >X>X>X>X>X>X>X>X>X>X>X>X>X>X>X>X>X",
">X>X>X>X>X>X>X>X>X>X>X>X>X>X>X>Xw /.V.C.C.C.C.C.C.C.C.C.C.C.C.C.C.C.V.V.V.C.C.C.C.C.V.C.C./.a >X>X>X>X>X>X>X>X>X>X>X>X>X>X>X>X>X",
">X>X>X>X>X>X>X>X>X>X>X>X>X>X>X>Xf /.C.C.V.C.C.C.C.C.V.C.C.C.V.C.C.C.C.V.C.C.C.V.C.C.C.C.V./.a.>X>X>X>X>X>X>X>X>X>X>X>X>X>X>X>X>X",
">X>X>X>X>X>X>X>X>X>X>X>X>X>X>X>Xu.~.C.C.C.C.C.C.V.N.V.V.V.V.N.N.V.V.V.V.C.C.V.V.C.C.C.C.V.!.z.>X>X>X>X>X>X>X>X>X>X>X>X>X>X>X>X>X",
">X>X>X>X>X>X>X>X>X>X>X>X>X>X>X>Xh.~.N.C.V.C.C.E.!.^.~.~.^.E.~.^.^.~.E.E.Z.Z.Z.C.C.V.C.C.C.E.x.>X>X>X>X>X>X>X>X>X>X>X>X>X>X>X>X>X",
">X>X>X>X>X>X>X>X>X>X>X>X>X>X>X>XL ~.C.E.!.E.N.k.L H D D D S D D H J i.k.n.V.C.Z.Z.~.E.E.C.!.k.>X>X>X>X>X>X>X>X>X>X>X>X>X>X>X>X>X",
">X>X>X>X>X>X>X>X>X>X>X>X>X>X>X>Xp /.Z.u.h.d a L k.l.x.x.x.b.n.x.l.k.h.J D f s d J i.z.h.B.(.u.>X>X>X>X>X>X>X>X>X>X>X>X>X>X>X>X>X",
">X>X>X>X>X>X>X>X>X>X>X>X>X>X>X>X& /.E.x.> B.!.E.E.E.E.E.E.E.C.(.).~.E.E.E.E.E.V.l.i.D w C.).e >X>X>X>X>X>X>X>X>X>X>X>X>X>X>X>X>X",
">X>X>X>X>X>X>X>X>X>X>X>X>X>X>X>X>Xz.~.C.Z.C.C.C.C.V.C.C.C.C.d D H n.Z.V.C.V.V.C.Z./.V.l.~.C.>X>X>X>X>X>X>X>X>X>X>X>X>X>X>X>X>X>X",
">X>X>X>X>X>X>X>X>X>X>X>X>X>X>X>X>Xw _.C.C.C.C.C.C.V.C.C.V.E.C.k.h.M.C.V.C.C.C.C.V.N.C.Z.).s >X>X>X>X>X>X>X>X>X>X>X>X>X>X>X>X>X>X",
">X>X>X>X>X>X>X>X>X>X>X>X>X>X>X>X>X>XL ).V.C.C.C.C.C.C.C.V.C.C.E.E.Z.V.Z.C.V.C.C.C.C.N./.l.>X>X>X>X>X>X>X>X>X>X>X>X>X>X>X>X>X>X>X",
">X>X>X>X>X>X>X>X>X>X>X>X>X>X>X>X>X>X>Xk.).N.C.C.C.C.C.C.C.C.C.V.V.C.C.V.C.C.C.C.C.N./.R.>X>X>X>X>X>X>X>X>X>X>X>X>X>X>X>X>X>X>X>X",
">X>X>X>X>X>X>X>X>X>X>X>X>X>X>X>X>X>X>X>Xl.).C.C.C.C.V.C.C.C.C.C.V.V.C.C.C.C.V.V.C.(.N.# >X>X>X>X>X>X>X>X>X>X>X>X>X>X>X>X>X>X>X>X",
">X>X>X>X>X>X>X>X>X>X>X>X>X>X>X>X>X>X>X>X>XH /.^.V.V.C.C.C.C.C.V.C.C.V.C.C.V.V.!.).a.>X>X>X>X>X>X>X>X>X>X>X>X>X>X>X>X>X>X>X>X>X>X",
">X>X>X>X>X>X>X>X>X>X>X>X>X>X>X>X>X>X>X>X>X>X& l.(./.E.C.C.V.V.V.V.V.C.V.E.^.(.n.w >X>X>X>X>X>X>X>X>X>X>X>X>X>X>X>X>X>X>X>X>X>X>X",
">X>X>X>X>X>X>X>X>X>X>X>X>X>X>X>X>X>X>X>X>X>X>X>X& J M././.~.^././.^.^./.C.i.w >X>X>X>X>X>X>X>X>X>X>X>X>X>X>X>X>X>X>X>X>X>X>X>X>X",
">X>X>X>X>X>X>X>X>X>X>X>X>X>X>X>X>X>X>X>X>X>X>X>X>X>X>X$ e S u.i.u.D u & >X>X>X>X>X>X>X>X>X>X>X>X>X>X>X>X>X>X>X>X>X>X>X>X>X>X>X>X"
};
