/* XPM */
static char *_949_2da4cd5b09dc0f6bdda620550c88aeea322bbb8b454177042eab6f2dd4adcce3[] = {
/* columns rows colors chars-per-pixel */
"64 64 245 2 ",
"   c black",
".  c #010000",
"X  c #000101",
"o  c #010101",
"O  c #020000",
"+  c #030000",
"@  c #000202",
"#  c #020202",
"$  c gray1",
"%  c #060000",
"&  c #040303",
"*  c #000404",
"=  c gray2",
"-  c #080000",
";  c #090000",
":  c #0A0000",
">  c #0C0000",
",  c #0F0000",
"<  c #000A0A",
"1  c gray3",
"2  c #080909",
"3  c #0B0B0B",
"4  c #0D0808",
"5  c #0C0C0C",
"6  c #100000",
"7  c #110000",
"8  c #120000",
"9  c #130000",
"0  c #120202",
"q  c #140000",
"w  c #150000",
"e  c #150101",
"r  c #160000",
"t  c #170000",
"y  c #190000",
"u  c #1B0000",
"i  c #1A0202",
"p  c #1C0000",
"a  c #1D0000",
"s  c #1E0000",
"d  c #1F0000",
"f  c #1D0202",
"g  c #1B0606",
"h  c #140B0B",
"j  c #100E0E",
"k  c #041515",
"l  c #0B1414",
"z  c #0B1515",
"x  c #131313",
"c  c #171A1A",
"v  c #191818",
"b  c #191919",
"n  c #181B1B",
"m  c gray11",
"M  c #1C1E1E",
"N  c gray12",
"B  c #200000",
"V  c #220000",
"C  c #230000",
"Z  c #260000",
"A  c #270000",
"S  c #260303",
"D  c #280101",
"F  c #2B0000",
"G  c #2C0000",
"H  c #2E0000",
"J  c #2F0000",
"K  c #2A0505",
"L  c #230808",
"P  c #200A0A",
"I  c #200B0B",
"U  c #270F0F",
"Y  c #2A0808",
"T  c #300000",
"R  c #330000",
"E  c #340000",
"W  c #350000",
"Q  c #360000",
"!  c #300404",
"~  c #390000",
"^  c #3F0000",
"/  c #3E0505",
"(  c #271717",
")  c #2B1414",
"_  c #271919",
"`  c #212424",
"'  c #2A2A2A",
"]  c #2C2C2C",
"[  c #2D2D2D",
"{  c gray18",
"}  c gray19",
"|  c #323232",
" . c #333232",
".. c #313535",
"X. c #363B3B",
"o. c #3A3A3A",
"O. c #383F3F",
"+. c #3C3C3C",
"@. c #470000",
"#. c #4C0000",
"$. c #411616",
"%. c #5A1616",
"&. c #660000",
"*. c #680000",
"=. c #6B0000",
"-. c #600D0D",
";. c #7C0000",
":. c #7D1515",
">. c #5B3737",
",. c #5C3636",
"<. c #653838",
"1. c #364242",
"2. c #384444",
"3. c #494949",
"4. c #4B4B4B",
"5. c gray31",
"6. c #504F4F",
"7. c #4F5454",
"8. c #535353",
"9. c gray37",
"0. c #6F4444",
"q. c #7F5757",
"w. c #5A6666",
"e. c #6C6F6F",
"r. c #6E7070",
"t. c #880000",
"y. c #8B0000",
"u. c #8E0000",
"i. c #960000",
"p. c #980000",
"a. c #990000",
"s. c #9B0000",
"d. c #9A0202",
"f. c #9F0000",
"g. c #940909",
"h. c #921414",
"j. c #941D1D",
"k. c #A60000",
"l. c #AD0000",
"z. c #AF0000",
"x. c #AE0505",
"c. c #B00000",
"v. c #B10000",
"b. c #B20000",
"n. c #B70000",
"m. c #B60202",
"M. c #B70707",
"N. c #BE0000",
"B. c #C00000",
"V. c #C10000",
"C. c #C20000",
"Z. c #C30000",
"A. c #C30101",
"S. c #C00202",
"D. c #C70000",
"F. c #C60101",
"G. c #C70101",
"H. c #C40606",
"J. c #C80000",
"K. c #C90000",
"L. c #CA0000",
"P. c #CB0000",
"I. c #C80303",
"U. c #CC0000",
"Y. c #CD0000",
"T. c #CE0000",
"R. c #CF0303",
"E. c #D00000",
"W. c #D30000",
"Q. c #D50000",
"!. c #D60000",
"~. c #D70000",
"^. c #D60202",
"/. c #D80000",
"(. c #D90000",
"). c #DA0000",
"_. c #DB0000",
"`. c #DC0000",
"'. c #DD0000",
"]. c #DE0000",
"[. c #DF0000",
"{. c #CC1111",
"}. c #E00000",
"|. c #E40000",
" X c #E50000",
".X c #E60000",
"XX c #E80000",
"oX c #E80101",
"OX c #EA0000",
"+X c #EB0000",
"@X c #EC0000",
"#X c #ED0000",
"$X c #EE0000",
"%X c #EF0000",
"&X c #F30000",
"*X c #F20303",
"=X c #F40000",
"-X c #F50000",
";X c #F60000",
":X c #F70000",
">X c #F80000",
",X c #F90000",
"<X c #FA0000",
"1X c #FB0000",
"2X c #FC0000",
"3X c #FD0000",
"4X c red",
"5X c #FF0303",
"6X c #FF0404",
"7X c #FF0B0B",
"8X c #FF0C0C",
"9X c #FF1212",
"0X c #FF1919",
"qX c #FF2C2C",
"wX c #FF2F2F",
"eX c #FF4141",
"rX c #FF4343",
"tX c #FF4E4E",
"yX c #FF5050",
"uX c #FF5B5B",
"iX c #FF5E5E",
"pX c #FF6666",
"aX c #FF6F6F",
"sX c #FF7474",
"dX c #FF7878",
"fX c #FF7B7B",
"gX c #FF7C7C",
"hX c #FF7E7E",
"jX c #FF8989",
"kX c #FF8A8A",
"lX c #FF8C8C",
"zX c #FF8F8F",
"xX c #FF9090",
"cX c #FF9191",
"vX c #FF9292",
"bX c #FF9696",
"nX c #FFA5A5",
"mX c #FFABAB",
"MX c #FFB0B0",
"NX c #FFB5B5",
"BX c #FFB6B6",
"VX c #FFB8B8",
"CX c #FFE1E1",
"ZX c white",
"AX c None",
/* pixels */
"AXAXAXAXAXAXAXAXAXAXAXAXAXAXAXAXAXAXAXAXAXAXAXAXAXAXAXAXAXAXAXAXAXAXAXAXAXAXAXAXAXAXAXAXAXAXAXAXAXAXAXAXAXAXAXAXAXAXAXAXAXAXAXAX",
"AXAXAXAXAXAXAXAXAXAXAXAXAXAXAXAXAXAXAXAXAXAXAXAXAXAXAXAXAXAXAXAXAXAXAXAXAXAXAXAXAXAXAXAXAXAXAXAXAXAXAXAXAXAXAXAXAXAXAXAXAXAXAXAX",
"AXAXAXAXAXAXAXAXAXAXAXAXAXAXAXAXAXAXAXAXAXAXAXAXAXAXAXAXAXAXAXAXAXAXAXAXAXAXAXAXAXAXAXAXAXAXAXAXAXAXAXAXAXAXAXAXAXAXAXAXAXAXAXAX",
"AXAXAXAXAXAXAXAXAXAXAXAXAXAXAXAXAXAXAXAXAXAXAXAXAXAXAXAXAXAXAXAXAXAXAXAXAXAXAXAXAXAXAXAXAXAXAXAXAXAXAXAXAXAXAXAXAXAXAXAXAXAXAXAX",
"AXAXAXAXAXAXAXAXAXAXAXAXAXAXAXAXAXAXAXAXAXAXAXAXAXAXAXAXAXAXAXAXAXAXAXAXAXAXAXAXAXAXAXAXAXAXAXAXAXAXAXAXAXAXAXAXAXAXAXAXAXAXAXAX",
"AXAXAXAXAXAXAXAXAXAXAXAXAXAXAXAXAXAXAXAXAXAXAXAXAXAXAXAXAXAXAXAXAXAXAXAXAXAXAXAXAXAXAXAXAXAXAXAXAXAXAXAXAXAXAXAXAXAXAXAXAXAXAXAX",
"AXAXAXAXAXAXAXAXAXAXAXAXAXAXAXAXAXAXAXAXAXAXAXAXAXAXAXAXAXAXAXAXAXAXAXAXAXAXAXAXAXAXAXAXAXAXAXAXAXAXAXAXAXAXAXAXAXAXAXAXAXAXAXAX",
"AXAXAXAXAXAXAXAXAXAXAXAXAXAXAXAXAXAXAXAXAXAXAXAXAXAXAXAXAXAXAXAXAXAXAXAXAXAXAXAXAXAXAXAXAXAXAXAXAXAXAXAXAXAXAXAXAXAXAXAXAXAXAXAX",
"AXAXAXAXAXAXAXAXAXAXAXAXAXAXAXAXAXAXAXAXAXAXAXAXAXAXAXAXAXAXAXAXAXAXAXAXAXAXAXAXAXAXAXAXAXAXAXAXAXAXAXAXAXAXAXAXAXAXAXAXAXAXAXAX",
"AXAXAXAXAXAXAXAXAXAXAXAXAXAXAXAXAXAXAXAXAXAXAXAXAXAXAXAXAXAXAXAXAXAXAXAXAXAXAXAXAXAXAXAXAXAXAXAXAXAXAXAXAXAXAXAXAXAXAXAXAXAXAXAX",
"AXAXAXAXAXAXAXAXAXAXAXAXAXAXAXAXAXAXAXAXAXAXAXAXAXAXAXAXAXAXAXAXAXAXAXAXAXAXAXAXAXAXAXAXAXAXAXAXAXAXAXAXAXAXAXAXAXAXAXAXAXAXAXAX",
"AXAXAXAXAXAXAXAXAXAXAXAXAXAXAXAXAXAXAXAXAXAXAXAXAXAXAXAXAXAXAXAXAXAXAXAXAXAXAXAXAXAXAXAXAXAXAXAXAXAXAXAXAXAXAXAXAXAXAXAXAXAXAXAX",
"AXAXAXAXAXAXAXAXAXAXAXAXAXAXAXAXAXAXAXAXAXAXAXAXAXAXAXAXAXAXAXAXAXAXAXAXAXAXAXAXAXAXAXAXAXAXAXAXAXAXAXAXAXAXAXAXAXAXAXAXAXAXAXAX",
"AXAXAXAXAXAXAXAXAXAXAXAXAXAXAXAXAXAXAXAXAXAXAXAXAXAXAXAXAXAXAXAXAXAXAXAXAXAXAXAXAXAXAXAXAXAXAXAXAXAXAXAXAXAXAXAXAXAXAXAXAXAXAXAX",
"AXAXAXAXAXAXAXAXAXAXAXAXAXAXAXAXAXAXAXAXAXAXAXAXAXAXAXAXAXAXAXAXAXAXAXAXAXAXAXAXAXAXAXAXAXAXAXAXAXAXAXAXAXAXAXAXAXAXAXAXAXAXAXAX",
"AXAXAXAXAXAXAXAXAXAXAXAXAXAXAXAXAXAXAXAXAXAXAXAXAXAXAXAXAXAXAXAXAXAXAXAXAXAXAXAXAXAXAXAXAXAXAXAXAXAXAXAXAXAXAXAXAXAXAXAXAXAXAXAX",
"AXAXAXAXAXAXAXAXAXAXAXAXAXAXAXAXAXAXAX#           AXAXAXAXAXAXAXAXAXAXAXAXAXAXAXAXAXAXAXAXAXAXAXAXAXAXAXAXAXAXAXAXAXAXAXAXAXAXAX",
"AXAXAXAXAXAXAXAXAXAXAXAXAXAXAXAXAX+.              # AXAXAXAXAXAXAXAXAXAXAXAX                  AXAXAXAXAXAXAXAXAXAXAXAXAXAXAXAXAX",
"AXAXAXAXAXAXAXAXAXAXAXAXAXAXAXAXAX1.              z AXAXAXAXAXAXAXAXAXAXAXAX                X AXAXAXAXAXAXAXAXAXAXAXAXAXAXAXAXAX",
"AXAXAXAXAXAXAXAXAXAXAXAXAXAXAXAXAX,.Q E E E E E W $.AXAXAXAXAXAXAXAXAXAXAXAXf B d d d d d B I AXAXAXAXAXAXAXAXAXAXAXAXAXAXAXAXAX",
"AXAXAXAXAXAXAXAXAXAXAXAXAXAXb c ) F.>X=X=X=X=X=X;X^.v b m AXAXAXAXAXAXx   0 A.~.Q.Q.Q.Q.Q.~.I.K   5 AXAXAXAXAXAXAXAXAXAXAXAXAXAX",
"AXAXAXAXAXAXAXAXAXAXAXAXAXAX    > U.4X4X4X4X4X4X4X(.      AXAXAXAXAXAXl   - $X4X4X4X4X4X4X4X|.a     AXAXAXAXAXAXAXAXAXAXAXAXAXAX",
"AXAXAXAXAXAXAXAXAXAXAXAXAXAXg p G L.4X4X6X8X7X5X4XQ.p a r AXAXAXAXAXAXU p s .X4X4X4X4X4X4X4X).Q u i AXAXAXAXAXAXAXAXAXAXAXAXAXAX",
"AXAXAXAXAXAXAXAXAXAXAX5...>.H.Q.).>X4X4XiXVXNXpX4X>X!./.B..   = 1 2 4 G.!.(.2X4X4X4X4X4X4X4X<X`.Q.R.<.X.+.AXAXAXAXAXAXAXAXAXAXAX",
"AXAXAXAXAXAXAXAXAXAXAX`   d .X4X4X4X4X4XlXZXZXvX4X4X4X4X X          + -X4X4X4X4X4X4X4X4X4X4X4X4X4X>XH     AXAXAXAXAXAXAXAXAXAXAX",
"AXAXAXAXAXAXAXAXAXAXAXO.  C ~.4X4X4X4X4XgXZXZXcX4X4X4X4XQ.6 6 6 6 6 w @X4X4X4X4X4X4X4X4X4X4X4X4X4XXXT   o AXAXAXAXAXAXAXAXAXAXAX",
"AXAXAXAXAXAXAXAX    L g.a.l.&X4X4XeXfXsXgXzXkXrX4X4X4X4X;XZ.Z.Z.Z.Z.J.1X4X4X4X4X4X4X4X4X4X4X4X4X4X>Xv.p.d.q.r.8.AXAXAXAXAXAXAXAX",
"AXAXAXAXAXAXAXAX$   G @X4X4X4X4X4XbXZXZXhX4X4X4X4X4X4X4X4X4X4X4X4X4X4X4X4X4X4X4X4X4X4X4X4X4X4X4X4X4X4X4X4XW   3 AXAXAXAXAXAXAXAX",
"AXAXAXAXAXAXAXAX[   F }.4X4X4X4X4XkXZXZXjX4X4X4X4X4X4X4X4X4X4X4X4X4X4X4X4X4X4X4X4X4X4X4X4X4X4X4X4X4X4X4X$X~   o AXAXAXAXAXAXAXAX",
"AXAXAXAXAXAXAXAX|   F }.4X4XwXyXtXhXMXBXuX4X4X4X4X4X4X4X4X4X4X4X4X4X4X4X4X4X4X4X4X4X4X4X4X4X4X4X4X4X4X4X$X~     AXAXAXAXAXAXAXAX",
"AXAXAXAXAXAXAXAX}   F }.4X4XnXZXZXdX4X4X4X4X4X4X4X4X4X4X4X4X4X4X4X4X4X4X4X4X4X4X4X4X4X4X4X4X4X4X4X4X4X4X$X~     AXAXAXAXAXAXAXAX",
"AXAXAXAXAXAXAXAX}   F }.4X4XmXZXZXhX4X4X4X4X4X4X4X4X4X4X4X4X4X4X4X4X4X4X4X4X4X4X4X4X4X4X4X4X4X4X4X4X4X4X$X~     AXAXAXAXAXAXAXAX",
"AXAXAXAXAXAXAXAX}   F }.4X4XxXCXCXaX4X4X4X4X4X4X4X4X4X4X4X4X4X4X4X4X4X4X4X4X4X4X4X4X4X4X4X4X4X4X4X4X4X4X$X~     AXAXAXAXAXAXAXAX",
"AXAXAXAXAXAXAXAX}   F }.4X4X0XqXqX9X4X4X4X4X4X4X4X4X4X4X4X4X4X4X4X4X4X4X4X4X4X4X4X4X4X4X4X4X4X4X4X4X4X4X$X~     AXAXAXAXAXAXAXAX",
"AXAXAXAXAXAXAXAX}   F }.4X4X4X4X4X4X4X4X4X4X4X4X4X4X4X4X4X4X4X4X4X4X4X4X4X4X4X4X4X4X4X4X4X4X4X4X4X4X4X4X$X~     AXAXAXAXAXAXAXAX",
"AXAXAXAXAXAXAXAX}   F }.4X4X4X4X4X4X4X4X4X4X4X4X4X4X4X4X4X4X4X4X4X4X4X4X4X4X4X4X4X4X4X4X4X4X4X4X4X4X4X4X$X~     AXAXAXAXAXAXAXAX",
"AXAXAXAXAXAXAXAX}   F }.4X4X4X4X4X4X4X4X4X4X4X4X4X4X4X4X4X4X4X4X4X4X4X4X4X4X4X4X4X4X4X4X4X4X4X4X4X4X4X4X$X~     AXAXAXAXAXAXAXAX",
"AXAXAXAXAXAXAXAX{   J OX4X4X4X4X4X4X4X4X4X4X4X4X4X4X4X4X4X4X4X4X4X4X4X4X4X4X4X4X4X4X4X4X4X4X4X4X4X4X4X4X<X^     AXAXAXAXAXAXAXAX",
"AXAXAXAXAXAXAXAXo.  Y x.Z.L.:X4X4X4X4X4X4X4X4X4X4X4X4X4X4X4X4X4X4X4X4X4X4X4X4X4X4X4X4X4X4X4X4X4X4X1XY.C.m.!     AXAXAXAXAXAXAXAX",
"AXAXAXAXAXAXAXAXAXAXAX    s _.4X4X4X4X4X4X4X4X4X4X4X4X4X4X4X4X4X4X4X4X4X4X4X4X4X4X4X4X4X4X4X4X4X4X+XG   X AXAXAXAXAXAXAXAXAXAXAX",
"AXAXAXAXAXAXAXAXAXAXAXM   Z '.4X4X4X4X4X4X4X4X4X4X4X4X4X4X4X4X4X4X4X4X4X4X4X4X4X4X4X4X4X4X4X4X4X4X@XR     AXAXAXAXAXAXAXAXAXAXAX",
"AXAXAXAXAXAXAXAXAXAXAX{   A ].4X4X4X4X4X4X4X4X4X4X4X4X4X4X4X4X4X4X4X4X4X4X4X4X4X4X4X4X4X4X4X4X4X4X#XE     AXAXAXAXAXAXAXAXAXAXAX",
"AXAXAXAXAXAXAXAXAXAXAX'   A ].4X4X4X4X4X4X4X4X4X4X4X4X4X4X4X4X4X4X4X4X4X4X4X4X4X4X4X4X4X4X4X4X4X4X#XE     AXAXAXAXAXAXAXAXAXAXAX",
"AXAXAXAXAXAXAXAXAXAXAX'   F .X4X4X4X4X4X4X4X4X4X4X4X4X4X4X4X4X4X4X4X4X4X4X4X4X4X4X4X4X4X4X4X4X4X4X%XR     AXAXAXAXAXAXAXAXAXAXAX",
"AXAXAXAXAXAXAXAXAXAXAX]   S S.].'.:X4X4X4X4X4X4X4X4X4X4X4X4X4X4X4X4X4X4X4X4X4X4X4X4X4X4X4X4X4X<X>X*X/     AXAXAXAXAXAXAXAXAXAXAX",
"AXAXAXAXAXAXAXAXAXAXAXAXAXAXo   y P.4X4X4X4X4X4X4X4X4X4X4X4X4X4X4X4X4X4X4X4X4X4X4X4X4X4X4X4X|.&.#.%.AXAXAXAXAXAXAXAXAXAXAXAXAXAX",
"AXAXAXAXAXAXAXAXAXAXAXAXAXAXn   t E.4X4X4X4X4X4X4X4X4X4X4X4X4X4X4X4X4X4X4X4X4X4X4X4X4X4X4X4X/.t   * AXAXAXAXAXAXAXAXAXAXAXAXAXAX",
"AXAXAXAXAXAXAXAXAXAXAXAXAXAX .  P M.[.`.:X4X4X4X4X4X4X4X4X4X4X4X4X4X4X4X4X4X4X4X4X4X4X4X4X4XoXD   & AXAXAXAXAXAXAXAXAXAXAXAXAXAX",
"AXAXAXAXAXAXAXAXAXAXAXAXAXAXAXAXAXj O r L.4X4X4X4X4X4X4X4X4X4X4X4X4X4X4X4X4X4X4X4X4X4X+Xy.;.:._   AXAXAXAXAXAXAXAXAXAXAXAXAXAXAX",
"AXAXAXAXAXAXAXAXAXAXAXAXAXAXAXAXAX    9 K.4X4X4X4X4X4X4X4X4X4X4X4X4X4X4X4X4X4X4X4X4X4X!.7   < AXAXAXAXAXAXAXAXAXAXAXAXAXAXAXAXAX",
"AXAXAXAXAXAXAXAXAXAXAXAXAXAXAXAXAX    e D.2X3X4X4X4X4X4X4X4X4X4X4X4X4X4X4X4X4X4X4X4X4XOXV     AXAXAXAXAXAXAXAXAXAXAXAXAXAXAXAXAX",
"AXAXAXAXAXAXAXAXAXAXAXAXAXAXAXAXAXAXAXAX0.E @.W.4X4X4X4X4X4X4X4X4X4X4X4X4X4X4X4X%Xf.i.h.( # { AXAXAXAXAXAXAXAXAXAXAXAXAXAXAXAXAX",
"AXAXAXAXAXAXAXAXAXAXAXAXAXAXAXAXAXAXAXAX2.  : V.4X4X4X4X4X4X4X4X4X4X4X4X4X4X4X4XQ.>   k AXAXAXAXAXAXAXAXAXAXAXAXAXAXAXAXAXAXAXAX",
"AXAXAXAXAXAXAXAXAXAXAXAXAXAXAXAXAXAXAXAX    r (.4X4X4X4X4X4X4X4X4X4X4X4X4X4X4X4X$Xa     AXAXAXAXAXAXAXAXAXAXAXAXAXAXAXAXAXAXAXAX",
"AXAXAXAXAXAXAXAXAXAXAXAXAXAXAXAXAXAXAXAXAXAXAX-.*.=.T.4X4X4X4X4X4X4X4X4X4X.Xs.p.t.q   AXAXAXAXAXAXAXAXAXAXAXAXAXAXAXAXAXAXAXAXAX",
"AXAXAXAXAXAXAXAXAXAXAXAXAXAXAXAXAXAXAXAXAXAXAX@     k.4X4X4X4X4X4X4X4X4X4XN.+     AXAXAXAXAXAXAXAXAXAXAXAXAXAXAXAXAXAXAXAXAXAXAX",
"AXAXAXAXAXAXAXAXAXAXAXAXAXAXAXAXAXAXAXAXAXAXAX    - n.4X4X4X4X4X4X4X4X4X4X!.6     AXAXAXAXAXAXAXAXAXAXAXAXAXAXAXAXAXAXAXAXAXAXAX",
"AXAXAXAXAXAXAXAXAXAXAXAXAXAXAXAXAXAXAXAXAXAXAXAXAXAXj.c.c.&X4X4X4X4X,Xb.z.u.>   3.AXAXAXAXAXAXAXAXAXAXAXAXAXAXAXAXAXAXAXAXAXAXAX",
"AXAXAXAXAXAXAXAXAXAXAXAXAXAXAXAXAXAXAXAXAXAXAXAXAXAXw.  % ~.4X4X4X4X@X;     AXAXAXAXAXAXAXAXAXAXAXAXAXAXAXAXAXAXAXAXAXAXAXAXAXAX",
"AXAXAXAXAXAXAXAXAXAXAXAXAXAXAXAXAXAXAXAXAXAXAXAXAXAX4.  : [.4X4X4X4X2X8     AXAXAXAXAXAXAXAXAXAXAXAXAXAXAXAXAXAXAXAXAXAXAXAXAXAX",
"AXAXAXAXAXAXAXAXAXAXAXAXAXAXAXAXAXAXAXAXAXAXAXAXAXAX9.  h {.).(.(.).Y.,   N AXAXAXAXAXAXAXAXAXAXAXAXAXAXAXAXAXAXAXAXAXAXAXAXAXAX",
"AXAXAXAXAXAXAXAXAXAXAXAXAXAXAXAXAXAXAXAXAXAXAXAXAXAXAXAXAXe.  . . .   AXAXAXAXAXAXAXAXAXAXAXAXAXAXAXAXAXAXAXAXAXAXAXAXAXAXAXAXAX",
"AXAXAXAXAXAXAXAXAXAXAXAXAXAXAXAXAXAXAXAXAXAXAXAXAXAXAXAXAX7.          AXAXAXAXAXAXAXAXAXAXAXAXAXAXAXAXAXAXAXAXAXAXAXAXAXAXAXAXAX",
"AXAXAXAXAXAXAXAXAXAXAXAXAXAXAXAXAXAXAXAXAXAXAXAXAXAXAXAXAX6.        = AXAXAXAXAXAXAXAXAXAXAXAXAXAXAXAXAXAXAXAXAXAXAXAXAXAXAXAXAX"
};
