/* XPM */
static char *_5579_303c45c967b0b04f954680accea3c77b8021dc6a72c9de1272ae10cc336ed6b5[] = {
/* columns rows colors chars-per-pixel */
"64 65 226 2 ",
"   c #08090E",
".  c #131319",
"X  c #1B1C2A",
"o  c #1E1E28",
"O  c #222226",
"+  c #29292B",
"@  c #262734",
"#  c #282935",
"$  c #2A2B39",
"%  c #2B2C38",
"&  c #2C2C38",
"*  c #2C2D3C",
"=  c #2D2E3C",
"-  c #2F3034",
";  c #30313D",
":  c #31313D",
">  c #30323E",
",  c #31323F",
"<  c #32333E",
"1  c #32333F",
"2  c #39393B",
"3  c #38383C",
"4  c #333442",
"5  c #363640",
"6  c #363642",
"7  c #353644",
"8  c #363744",
"9  c #373746",
"0  c #363840",
"q  c #393943",
"w  c #3C3D43",
"e  c #383947",
"r  c #3D3D47",
"t  c #3E3E47",
"y  c #383948",
"u  c #393A49",
"i  c #3A3B49",
"p  c #3A3B4A",
"a  c #3B3C48",
"s  c #3A3C4B",
"d  c #3B3C4B",
"f  c #3B3E4A",
"g  c #3C3D49",
"h  c #3C3C4A",
"j  c #3C3D4B",
"k  c #3D3E4B",
"l  c #3F3F4A",
"z  c #3C3D4C",
"x  c #3D3E4C",
"c  c #3D3E4D",
"v  c #3E3E4C",
"b  c #3E3F4C",
"n  c #3F3F4C",
"m  c #3E3F4D",
"M  c #3C3E4E",
"N  c #3D3E4E",
"B  c #3E3F4E",
"V  c #3F3F4E",
"C  c #3F404C",
"Z  c #3F404D",
"A  c #3F404E",
"S  c #3F414E",
"D  c #3F4150",
"F  c #3F4052",
"G  c #404044",
"H  c #43434A",
"J  c #40404D",
"K  c #40414D",
"L  c #40414E",
"P  c #41414E",
"I  c #40414F",
"U  c #41414F",
"Y  c #41424F",
"T  c #42424F",
"R  c #42434F",
"E  c #414250",
"W  c #414351",
"Q  c #424250",
"!  c #424350",
"~  c #434350",
"^  c #424351",
"/  c #434351",
"(  c #414252",
")  c #434352",
"_  c #434451",
"`  c #434452",
"'  c #434552",
"]  c #444450",
"[  c #444552",
"{  c #454553",
"}  c #444653",
"|  c #474753",
" . c #424355",
".. c #434454",
"X. c #424455",
"o. c #434455",
"O. c #444555",
"+. c #454655",
"@. c #464755",
"#. c #474952",
"$. c #474857",
"%. c #484956",
"&. c #494956",
"*. c #484A57",
"=. c #4B4C56",
"-. c #4F4F54",
";. c #494A59",
":. c #4A4A58",
">. c #48495A",
",. c #4A4B5A",
"<. c #4A4B5B",
"1. c #4A4C5A",
"2. c #4B4C5B",
"3. c #4C4C59",
"4. c #4C4D59",
"5. c #4D4D59",
"6. c #4D4E59",
"7. c #4E4F59",
"8. c #4F4F59",
"9. c #4C4D5A",
"0. c #4C4D5B",
"q. c #4D4E5B",
"w. c #4F4F5B",
"e. c #4B4B5E",
"r. c #4D4E5D",
"t. c #4E4F5D",
"y. c #4C4D5E",
"u. c #4F505C",
"i. c #4F505D",
"p. c #52525B",
"a. c #52525E",
"s. c #52535F",
"d. c #54555E",
"f. c #54555F",
"g. c #55555F",
"h. c #56575E",
"j. c #4C4C60",
"k. c #4E4F60",
"l. c #4F5162",
"z. c #4F5063",
"x. c #4F5064",
"c. c #515260",
"v. c #525260",
"b. c #525360",
"n. c #505163",
"m. c #515262",
"M. c #515263",
"N. c #525363",
"B. c #535460",
"V. c #535462",
"C. c #535463",
"Z. c #545560",
"A. c #555661",
"S. c #565660",
"D. c #545463",
"F. c #545563",
"G. c #555662",
"H. c #565762",
"J. c #505164",
"K. c #525265",
"L. c #525365",
"P. c #525366",
"I. c #535466",
"U. c #535467",
"Y. c #545565",
"T. c #555664",
"R. c #555667",
"E. c #565667",
"W. c #575965",
"Q. c #575866",
"!. c #575867",
"~. c #585860",
"^. c #5A5B64",
"/. c #5A5B65",
"(. c #5B5C67",
"). c #5C5C65",
"_. c #5C5D65",
"`. c #5C5D66",
"'. c #545668",
"]. c #565768",
"[. c #565769",
"{. c #55576B",
"}. c #56576A",
"|. c #57586B",
" X c #595A68",
".X c #585A6A",
"XX c #595A6B",
"oX c #5E5F68",
"OX c #5F5F69",
"+X c #5A5B6D",
"@X c #5D5F70",
"#X c #5E5F70",
"$X c #61626C",
"%X c #62626D",
"&X c #62636E",
"*X c #62636F",
"=X c #63646F",
"-X c #64646E",
";X c #66676F",
":X c #626372",
">X c #636470",
",X c #656570",
"<X c #646571",
"1X c #606174",
"2X c #636477",
"3X c #656776",
"4X c #686872",
"5X c #66677B",
"6X c #6B6D7B",
"7X c #6F707B",
"8X c #70717E",
"9X c #71727F",
"0X c #6A6C80",
"qX c #6C6D81",
"wX c #6E6F83",
"eX c #707287",
"rX c #727386",
"tX c #797B8F",
"yX c #7E818F",
"uX c #898C9F",
"iX c #8C8FA1",
"pX c #979BA7",
"aX c #969AAE",
"sX c #A6AABF",
"dX c #BBBFC8",
"fX c None",
/* pixels */
"fXfXfXfXfXfXfXfXfXfXfXfXfXfXfXfXfXfXfXfXfXfXfXfXfXfXfXfXfXfXfXfXfXfXfXfXfXfXfXfXfXfXfXfXfXfXfXfXfXfXfXfXfXfXfXfXfXfXfXfXfXfXfXfX",
"fXfXfXfXfXfXfXfXfXfXfXfXfXfXfXfXfXfXfXfXfXfXfXfXfXfXfXfXfXfXfXfXfXfXfXfXfXfXfXfXfXfXfXfXfXfXfXfXfXfXfXfXfXfXfXfXfXfXfXfXfXfXfXfX",
"fXfXfXfXfXfXfXfXfXfXfXfXfXfXfXfXfXfXfXfXfXfXfXfXfXfXfXfXfXfXfXfXfXfXfXfXfXfXfXfXfXfXfXfXfXfXfXfXfXfXfXfXfXfXfXfXfXfXfXfXfXfXfXfX",
"fXfXfXfXfXfXfXfXfXfXfXfXfXfXfXfXfXfXfXfXfXfXfXfXfXfXfXfXfXfXfXfXfXfXfXfXfXfXfXfXfXfXfXfXfXfXfXfXfXfXfXfXfXfXfXfXfXfXfXfXfXfXfXfX",
"fXfXfXfXfXfXfXfXfXfXfXfXfXfXfXfXfXfXfXfXfXfXfXfXfXfXfXfXfXfXfXfXfXfXfXfXfXfXfXfXfXfXfXfXfXfXfXfXfXfXfXfXfXfXfXfXfXfXfXfXfXfXfXfX",
"fXfXfXfXfXfXfXfXfXfXfXfXfXfXfXfXfXfXfXfXfXfXfXfXfXfXfXfXfXfXfXfXfXfXfXfXfXfXfXfXfXfXfXfXfXfXfXfXfXfXfXfXfXfXfXfXfXfXfXfXfXfXfXfX",
"fXfXfXfXfXfXfXfXfXfXfXfXfXfXfXfXfXfXfXfXfXfXfXfXfXfXfXfXfXfXfXfXfXfXfXfXfXfXfXfXfXfXfXfXfXfXfXfXfXfXfXfXfXfXfXfXfXfXfXfXfXfXfXfX",
"fXfXfXfXfXfXfXfXfXfXfXfXfXfXfXfXfXfXfXfXfXfXfXfXfXfXfXfXfXfXfXfXfXfXfXfXfXfXfXfXfXfXfXfXfXfXfXfXfXfXfXfXfXfXfXfXfXfXfXfXfXfXfXfX",
"fXfXfXfXfXfXfXfXfXfXfXfXfXfXfXfXfXfXfXfXfXfXfXfXfXfXfXfXfXfXfXfXfXfXfXfXfXfXfXfXfXfXfXfXfXfXfXfXfXfXfXfXfXfXfXfXfXfXfXfXfXfXfXfX",
"fXfXfXfXfXfXfXfXfXfXfXfXfXfXfXfXfXfXfXfXfXfXfXfXfXfXfXfXfXfXfXfXfXfXfXfXfXfXfXfXfXfXfXfXfXfXfXfXfXfXfXfXfXfXfXfXfXfXfXfXfXfXfXfX",
"fXfXfXfXfXfXfXfXfXfXfXfXfXfXfXfXfXfXfXfXfXfXfXfXfXfXfXfXfXfXfXfXfXfXfXfXfXfXfXfXfXfXfXfXfXfXfXfXfXfXfXfXfXfXfXfXfXfXfXfXfXfXfXfX",
"fXfXfXfXfXfXfXfXfXfXfXfXfXfXfXfXfXfXfXfXfXfXfXfXfXfXfXfXfXfXfXfXfXfXfXfXfXfXfXfXfXfXfXfXfXfXfXfXfXfXfXfXfXfXfXfXfXfXfXfXfXfXfXfX",
"fXfXfXfXfXfXfXfXfXfXfXfXfXfXfXfXfXfXfXfXfXfXfXfXfXfXfXfXfXfXfXfXfXfXfXfXfXfXfXfXfXfXfXfXfXfXfXfXfXfXfXfXfXfXfXfXfXfXfXfXfXfXfXfX",
"fXfXfXfXfXfXfXfXfXfXfXfXfXfXfXfXfXfXfXfXfXfXfXfXfXfXfXfXfXfXfXfXfXfXfXfXfXfXfXfXfXfXfXfXfXfXfXfXfXfXfXfXfXfXfXfXfXfXfXfXfXfXfXfX",
"fXfXfXfXfXfXfXfXfXfXfXfXfXfXfXfXfXfXfXfXfXfXfXfXfXfXfXfXfXfXfXfXfXfXfXfXfXfXfXfXfXfXfXfXfXfXfXfXfXfXfXfXfXfXfXfXfXfXfXfXfXfXfXfX",
"fXfXfXfXfXfXfXfXfXfXfXfXfXfXfXfXfXfXfXfXfXfXfXfXfXfXfXfXfXfXfXfXfXfXfXfXfXfXfXfXfXfXfXfXfXfXfXfXfXfXfXfXfXfXfXfXfXfXfXfXfXfXfXfX",
"fXfXfXfXfXfXfXfXfXfXfXfXfXfXfXfXfXfXfXfXfXfXfXfXfXfXfXfXfXfXfXfXfXfXfXfXfXfXfXfXfXfXfXfXfXfXfXfXfXfXfXfXfXfXfXfXfXfXfXfXfXfXfXfX",
"fXfXfXfXfXfXfXfXfXfXfXfXfXfXfXfXfXfXfXfXfXfXfXfXfXfXfXfXfXfXfXfXfXfXfXfXfXfXfXfXfXfXfXfXfXfXfXfXfXfXfXfXfXfXfXfXfXfXfXfXfXfXfXfX",
"fXfXfXfXfXfXfXfXfXfXfXfXfXfXfXfXfXfXfXfXfXfXfXfXfXfXfXfXfXfXfXfXfXfXfXfXfXfXfXfXfXfXfXfXfXfXfXfXfXfXfXfXfXfXfXfXfXfXfXfXfXfXfXfX",
"fXfXfXfXfXfXfXfXfXfXfXfXfXfXfXfXfXfXfXfXfXfXfXfXfXfXfXfXfXfXfXfXfXfXfXfXfXfXfXfXfXfXfXfXfXfXfXfXfXfXfXfXfXfXfXfXfXfXfXfXfXfXfXfX",
"fXfXfXfXfXfXfXfXfXfXfXfXfXfXfXfXfXfXfXfXfXfXfXfXfXfXfXfXfXfXfXfXfXfXfXfXfXfXfXfXfXfXfXfXfXfXfXfXfXfXfXfXfXfXfXfXfXfXfXfXfXfXfXfX",
"fXfXfXfXfXfXfXfXfXfXfXfXfXfXfXfXfXfXfXfXfXfXfXfXfXfXfXfXfXfXfXfXfXfXfXfXfXfXfXfXfXfXfXfXfXfXfXfXfXfXfXfXfXfXfXfXfXfXfXfXfXfXfXfX",
"fXfXfXfXfXfXfXfXfXfXfXfXfXfXfXfXfXfXfXfXfXfXfXfXfXfXfXfXfXfXfXfXfXfXfXfXfXfXfXfXfXfXfXfXfXfXfXfXfXfXfXfXfXfXfXfXfXfXfXfXfXfXfXfX",
"fXfXfXfXfXfXfXfXfXfXfXfXfXfXfXfXfXfXfXfXfXfXfXfXfXfXfXfXfXfXfXfXfXfXfXfXfXfXfXfXfXfXfXfXfXfXfXfXfXfXfXfXfXfXfXfXfXfXfXfXfXfXfXfX",
"fXfXfXfXfXfXfXfXfXfXfXfXfXfXfXfXfXfXfXfXfXfXfXfXfXfXfXfXfXfXfXfXfXfXfXfXfXfXfXfXfXfXfXfXfXfXfXfXfXfXfXfXfXfXfXfXfXfXfXfXfXfXfXfX",
"fXfXfXfXfXfXfXfXfXfXfXfXfXfXfXfXfXfXfXfXfXfXfXfXfXfXfXfXfXfXfXfXfXfXfXfXfXfXfXfXfXfXfXfXfXfXfXfXfXfXfXfXfXfXfXfXfXfXfXfXfXfXfXfX",
"fXfXfXfXfXfXfXfXfXfXfXfXfXfXfXfXfXfXfXfXfXfXfXfXfXfXfXfXfXfXfXfXfXfXfXfXfXfXfXfXfXfXfXfXfXfXfXfXfXfXfXfXfXfXfXfXfXfXfXfXfXfXfXfX",
"fXfXfXfXfXfXfXfXfXfXfXfXfXfXfXfXfXfXfXfXfXfXfXfXfXfXfXfXfXfXfXfXfXfXfXfXfXfXfXfXfXfXfXfXfXfXfXfXfXfXfXfXfXfXfXfXfXfXfXfXfXfXfXfX",
"fXfXfXfXfXfXfXfXfXfXfXfXfXfXfXfXfXfXfXfXfXfXfXfXfXfXfXfXfXfXfXfXfXfXfXfXfXfXfXfXfXfXfXfXfXfXfXfXfXfXfXfXfXfXfXfXfXfXfXfXfXfXfXfX",
"fXfXfXfXfXfXfXfXfXfXfXfXfXfXfXfXfXfXfXfXfXfXfXfXfXfXfXfXfXfXfXfXfXfXfXfXfXfXfXfXfXfXfXfXfXfXfXfXfXfXfXfXfXfXfXfXfXfXfXfXfXfXfXfX",
"fXfXfXfXfXfXfXfXfXfXfXfXfXfXfXfXfXfXfXfXfXfXfXfXfXfXfXfXfXfXfXfXfXfXfXfXfXfXfXfXfXfXfXfXfXfXfXfXfXfXfXfXfXfXfXfXfXfXfXfXfXfXfXfX",
"fXfXfXfXfXfXfXfXfXfXfXfXfXfXfXfXfXfXfXfXfXfXfXfXfXfXfXfXfXfXfXfXfXfXfXfXfXfXfXfXfXfXfXfXfXfXfXfXfXfXfXfXfXfXfXfXfXfXfXfXfXfXfXfX",
"fXfXfXfXfXfXfXfXfXfXfXfXfXfXfXfXfXfXfXfXfXfXfXfXfXfXfXfXfXfXfXfXfXfXfXfXfXfXfXfXfXfXfXfXfXfXfXfXfXfXfXfXfXfXfXfXfXfXfXfXfXfXfXfX",
"fXfXfXfXfXfXfXfXfXfXfXfXfXfXfXfXfXfXfXfXfXfXfXfXfXfXfXfXfXfXfXfXfXfXfXfXfXfXfXfXfXfXfXfXfXfXfXfXfXfXfXfXfXfXfXfXfXfXfXfXfXfXfXfX",
"fXfXfXfXfXfXfXfXfXfXfXfXfXfXfXfXfXfXfXfXfXfXfXfXfXfXfXfXfXfXfXfXfXfXfXfXfXfXfXfXfXfXfXfXfXfXfXfXfXfXfXfXfXfXfXfXfXfXfXfXfXfXfXfX",
"fXfXfXfXfXfXfXfXfXfXfXfXfXfXfXfXfXfXfXfXfXfXfXfXfXfXfXfXfXfXfXfXfXfXfXfXfXfXfXfXfXfXfXfXfXfXfXfXfXfXfXfXfXfXfXfXfXfXfXfXfXfXfXfX",
"fXfXfXfXfXfXfXfXfXfXfXfXfXfXfXfXfXfXfXfXfXfXfXfXfXfXfXfXfXfXfXfXfXfXfXfXfXfXfXfXfXfXfXfXfXfXfXfXfXfXfXfXfXfXfXfXfXfXfXfXfXfXfXfX",
"fXfXfXfXfXfXfXfXfXfXfXfXfXfXfXfXfXfXfXfXfXfXfXfXfXfXfXfXfXfXfXfXfXfXfXfXfXfXfXfXfXfXfXfXfXfXfXfXfXfXfXfXfXfXfXfXfXfXfXfXfXfXfXfX",
"fXfXfXfXfXfXfXfXfXfXfXfXfXfXfXfXfXfXfXfXfXfXfXfXfXfXfXfXfXfXfXfXfXfXfXfXfXfXfXfXfXfXfXfXfXfXfXfXfXfXfXfXfXfXfXfXfXfXfXfXfXfXfXfX",
"fXfXfXfXfXfXfXfXfXfXfXfXfXfXfXfXfXfXfXfXfXfXfXfXfXfXfXfXfXfXfXfXfXfXfXfXfXfXfXfXfXfXfXfXfXfXfXfXfXfXfXfXfXfXfXfXfXfXfXfXfXfXfXfX",
"fXfXfXfXfXfXfXfXfXfXfXfXfXfXfXfXfXfXfXfXfXfXfXfXfXfXfXfXfXfXfXfXfXfXfXfXfXfXfXfXfXfXfXfXfXfXfXfXfXfXfXfXfXfXfXfXfXfXfXfXfXfXfXfX",
"fXfXfXfXfXfXfXfXfXfXfXfXfXfXfXfXfXfXfXfXfXfXfXfXfXfXfXfXfXfXfXfXfXfXfXfXfXfXfXfXfXfXfXfXfXfXfXfXfXfXfXfXfXfXfXfXfXfXfXfXfXfXfXfX",
"fXfXfXfXfXfXfXfXfXfXfXfXfXfXfXfXfXfXfXfXfXfXfXfXfXfXfXfXfXfXfXfXfXfXfXfXfXfXfXfXfXfXfXfXfXfXfXfXfXfXfXfXfXfXfXfXfXfXfXfXfXfXfXfX",
"fXfXfXfXfXfXfXfXfXfXfXfXfXfXfXfXfXfXfXfXfXfXfXfXfXfXfXfXfXfXfXfXfXoXfXfX_.fXp.fXfXfXfXfXfXfXfXfXfXfXfXfXfXfXfXfXfXfXfXfXfXfXfXfX",
"fXfXfXfXfXfXfXfXfXfXfXfXfXfXfXfXfXfXfXfXfXfXfXfXfXfXfXfX%XV.N.].Y.[.E.R.I.u.o.fX6.a.fXfXfXfXfXfXfXfXfXfXfXfXfXfXfXfXfXfXfXfXfXfX",
"fXfXfXfXfXfXfXfXfXfXfXfXfXfXfXfXfXfXfXfXfXfXOX8.*.;.N.< s { -X$X(.B.c.v.t.<.0.+.V 9.fX^ fXfXfXfXfXfXfXfXfXfXfXfXfXfXfXfXfXfXfXfX",
"fXfXfXfXfXfXfXfXfXfXfXfXfXfXfXfXfXfXfXfX) | N +./.fXfX, 6 g P b x b m n Z A U ! / ^ 4 E ~.!.fXfXfXfXfXfXfXfXfXfXfXfXfXfXfXfXfXfX",
"fXfXfXfXfXfXfXfXfXfXfXfXfXfXfXfXfXfX[ % 7 K fXfXfX[ m [ ` ^ Y Y Y Y Y Y Y Y Y Y Y S h.l @ s.;XfXfXfXfXfXfXfXfXfXfXfXfXfXfXfXfXfX",
"fXfXfXfXfXfXfXfXfXfXfXfXfXfXfXfXfX} o : fXfXfXE j Z Y Y Y E Y Y Y Y E Y Y Y Y Y ! j S.fX5 & # fXfXfXfXfXfXfXfXfXfXfXfXfXfXfXfXfX",
"fXfXfXfXfXfXfXfXfXfXfXfXfXfXfXfXaX  w fXfXfXh x E E E Y Y E Y Y Y E Y Y E Y Y Y ! i fXfXfXG . 3XfXfXfXfXfXfXfXfXfXfXfXfXfXfXfXfX",
"fXfXfXfXfXfXfXfXfXfXfXfXfXfXfXfXf O fXfXfXA Z E Y Y Y Y E Y Y Y Y E Y Y E Y E Y p =.fXfXfXfX+ > fXfXfXfXfXfXfXfXfXfXfXfXfXfXfXfX",
"fXfXfXfXfXfXfXfXfXfXfXfXfXfXfXdX- fXfXfXfXd T Y Y Y Y Y Y Y Y Y Y E Y Y Y J j v 7.fXfXfXfXfXfX0 sXfXfXfXfXfXfXfXfXfXfXfXfXfXfXfX",
"fXfXfXfXfXfXfXfXfXfXfXfXfXfXfXpX3 fXfXfXfX=.u m L E E E Q E R E I L L Z j _ g.fXfXfXfXfXfXfXfX2 uXfXfXfXfXfXfXfXfXfXfXfXfXfXfXfX",
"fXfXfXfXfXfXfXfXfXfXfXfXfXfXfX6XfXfXfXfXfXfX).&.I x x x x c k B ' @.$.2.fXfXfXfXfXfXfXfXfXfXfXfXiXfXfXfXfXfXfXfXfXfXfXfXfXfXfXfX",
"fXfXfXfXfXfXfXfXfXfXfXfXfXfXfXW.fXfXfXfXfXfXfXfXfXfXA.A.b.i.G.f.( k.|.l.fXfXfXfXfXfXfXfXfXfXfXfXyXfXfXfXfXfXfXfXfXfXfXfXfXfXfXfX",
"fXfXfXfXfXfXfXfXfXfXfXfXfXfXfXfXW fXfXfXfXfXfXfXfXfXfXfXfXfXfXfX] m D.M. XfXfXfXfXfXfXfXfXfXfXfX8XfXfXfXfXfXfXfXfXfXfXfXfXfXfXfX",
"fXfXfXfXfXfXfXfXfXfXfXfXfXfXfXfXX fXfXfXfXfXfXfXfXfXfXfXfXfXfXfXfXy r.XX'.fXfXfXfXfXfXfXfXfXfXP.fXfXfXfXfXfXfXfXfXfXfXfXfXfXfXfX",
"fXfXfXfXfXfXfXfXfXfXfXfXfXfXfXfX; ^.r fXfXfXfXfXfXfXfXfXfXfXfXfXfX#.D #X+X:XfXfXfXfXfXfXfXfX7X9 fXfXfXfXfXfXfXfXfXfXfXfXfXfXfXfX",
"fXfXfXfXfXfXfXfXfXfXfXfXfXfXfXfXfX* = fXfXfXfXfXfXfXfXfXfXfXfXfXfXfXi .X2X1XfXfXfXfXfXfXfXO.e fXfXfXfXfXfXfXfXfXfXfXfXfXfXfXfXfX",
"fXfXfXfXfXfXfXfXfXfXfXfXfXfXfXfXfXt $ -.fXq fXfXfXfXfXfXfXfXfXfXfXfXfX>.qX5X9XfXfXfXfXfX>.I fXfXfXfXfXfXfXfXfXfXfXfXfXfXfXfXfXfX",
"fXfXfXfXfXfXfXfXfXfXfXfXfXfXfXfXfXfXa 1 I 8 fXfXfXfXfXfXfXfXfXfXfXfXfXC 0XwXrXfXfXfX1.M 5.fXfXfXfXfXfXfXfXfXfXfXfXfXfXfXfXfXfXfX",
"fXfXfXfXfXfXfXfXfXfXfXfXfXfXfXfXfXfXfXw.B N H 5. .fXfXfXfXfXfXfXfXfXfXfX@XtXeX*XK ..,.fXfXfXfXfXfXfXfXfXfXfXfXfXfXfXfXfXfXfXfXfX",
"fXfXfXfXfXfXfXfXfXfXfXfXfXfXfXfXfXfXfXfXfXq.F y.R.:.~ K.%.fXfX3.d.fXZ.H.4.K.z X.Q.fXfXfXfXfXfXfXfXfXfXfXfXfXfXfXfXfXfXfXfXfXfXfX",
"fXfXfXfXfXfXfXfXfXfXfXfXfXfXfXfXfXfXfXfXfXfXfXF.m.n.U.[.}.e.z.{.x.j.J.L.C.T.`.fXfXfXfXfXfXfXfXfXfXfXfXfXfXfXfXfXfXfXfXfXfXfXfXfX",
"fXfXfXfXfXfXfXfXfXfXfXfXfXfXfXfXfXfXfXfXfXfXfXfXfXfXfX,X=X<X>X&X4XfXfXfXfXfXfXfXfXfXfXfXfXfXfXfXfXfXfXfXfXfXfXfXfXfXfXfXfXfXfXfX"
};
